<svg width="32" height="32" viewBox="0 0 32 32" fill="none" xmlns="http://www.w3.org/2000/svg">
<path d="M12.9997 26.668C12.9988 25.8614 13.2641 25.0771 13.7543 24.4366C14.2445 23.7961 14.9323 23.3351 15.7111 23.1252C16.4898 22.9153 17.3161 22.9681 18.0618 23.2755C18.8075 23.5829 19.431 24.1276 19.8357 24.8253C22.6223 23.596 23.6663 21.6667 23.6663 18V14C23.6663 8.67733 20.665 5 15.9997 5C11.3343 5 8.33301 8.67867 8.33301 14V18.6667C8.33266 18.9318 8.22719 19.1859 8.03973 19.3734C7.85227 19.5608 7.59812 19.6663 7.33301 19.6667H5.99967C5.02777 19.6656 4.09596 19.2791 3.40859 18.592C2.72122 17.9049 2.33442 16.9732 2.33301 16.0013L2.33301 14.668C2.33407 13.6957 2.72067 12.7636 3.40804 12.076C4.0954 11.3884 5.02742 11.0014 5.99967 11H6.63701C7.64634 6.23867 11.101 3 15.9997 3C20.8983 3 24.3517 6.23867 25.361 11H25.9983C26.9704 11.0014 27.9022 11.3882 28.5895 12.0755C29.2768 12.7628 29.6636 13.6946 29.665 14.6667V16C29.6639 16.9721 29.2773 17.9042 28.5899 18.5916C27.9025 19.279 26.9705 19.6656 25.9983 19.6667H25.5863C25.5349 21.2459 25.0051 22.7722 24.067 24.0436C23.1289 25.3151 21.8268 26.2716 20.333 26.7867C20.3173 27.7591 19.9159 28.6855 19.2171 29.362C18.5184 30.0385 17.5795 30.4097 16.607 30.394C15.6345 30.3783 14.7082 29.9769 14.0317 29.2781C13.3552 28.5793 12.9839 27.6405 12.9997 26.668ZM14.9997 26.668C14.9997 26.9976 15.0974 27.3199 15.2806 27.594C15.4637 27.868 15.724 28.0817 16.0285 28.2078C16.3331 28.3339 16.6682 28.3669 16.9915 28.3026C17.3148 28.2383 17.6118 28.0796 17.8449 27.8465C18.0779 27.6134 18.2367 27.3165 18.301 26.9932C18.3653 26.6698 18.3323 26.3347 18.2061 26.0302C18.08 25.7256 17.8664 25.4654 17.5923 25.2822C17.3182 25.0991 16.996 25.0013 16.6663 25.0013C16.2244 25.0017 15.8007 25.1774 15.4882 25.4899C15.1757 25.8024 15 26.2261 14.9997 26.668ZM25.6663 17.668H25.9983C26.4405 17.668 26.8646 17.4924 27.1773 17.1799C27.4901 16.8674 27.666 16.4435 27.6663 16.0013V14.668C27.6663 14.2259 27.4908 13.8018 27.1783 13.489C26.8657 13.1762 26.4418 13.0004 25.9997 13H25.6663V17.668ZM4.33301 14.668V16.0013C4.33371 16.443 4.50958 16.8664 4.82202 17.1786C5.13447 17.4908 5.55799 17.6663 5.99967 17.6667H6.33301V13H5.99967C5.55752 13.0004 5.1336 13.1762 4.82108 13.489C4.50856 13.8018 4.33301 14.2259 4.33301 14.668Z" fill="#8D8DA5"/>
</svg>
