<svg width="32" height="32" viewBox="0 0 32 32" fill="none" xmlns="http://www.w3.org/2000/svg">
<path d="M3 25C10.1141 24.9942 17.1973 25.9363 24.0627 27.8013C25.032 28.0653 26 27.3453 26 26.34V25M5 6V7C5 7.26522 4.89464 7.51957 4.70711 7.70711C4.51957 7.89464 4.26522 8 4 8H3M3 8V7.5C3 6.672 3.672 6 4.5 6H27M3 8V20M27 6V7C27 7.552 27.448 8 28 8H29M27 6H27.5C28.328 6 29 6.672 29 7.5V20.5C29 21.328 28.328 22 27.5 22H27M3 20V20.5C3 20.8978 3.15804 21.2794 3.43934 21.5607C3.72064 21.842 4.10218 22 4.5 22H5M3 20H4C4.26522 20 4.51957 20.1054 4.70711 20.2929C4.89464 20.4804 5 20.7348 5 21V22M27 22V21C27 20.7348 27.1054 20.4804 27.2929 20.2929C27.4804 20.1054 27.7348 20 28 20H29M27 22H5M20 14C20 15.0609 19.5786 16.0783 18.8284 16.8284C18.0783 17.5786 17.0609 18 16 18C14.9391 18 13.9217 17.5786 13.1716 16.8284C12.4214 16.0783 12 15.0609 12 14C12 12.9391 12.4214 11.9217 13.1716 11.1716C13.9217 10.4214 14.9391 10 16 10C17.0609 10 18.0783 10.4214 18.8284 11.1716C19.5786 11.9217 20 12.9391 20 14ZM24 14H24.0107V14.0107H24V14ZM8 14H8.01067V14.0107H8V14Z" stroke="#8D8DA5" stroke-width="2" stroke-linecap="round" stroke-linejoin="round"/>
</svg>
