<svg width="40" height="40" viewBox="0 0 40 40" fill="none" xmlns="http://www.w3.org/2000/svg">
<path d="M33.333 20C33.333 27.3638 27.3635 33.3334 19.9997 33.3334M33.333 20C33.333 12.6362 27.3635 6.66671 19.9997 6.66671M33.333 20H6.66634M19.9997 33.3334C12.6359 33.3334 6.66634 27.3638 6.66634 20M19.9997 33.3334C23.3347 29.6822 25.2309 24.944 25.3339 20C25.2309 15.0561 23.3347 10.3178 19.9997 6.66671M19.9997 33.3334C16.6646 29.6822 14.7703 24.944 14.6673 20C14.7703 15.0561 16.6646 10.3178 19.9997 6.66671M6.66634 20C6.66634 12.6362 12.6359 6.66671 19.9997 6.66671M9.99967 33.3334C9.99967 35.1743 8.50729 36.6667 6.66634 36.6667C4.82539 36.6667 3.33301 35.1743 3.33301 33.3334C3.33301 31.4924 4.82539 30 6.66634 30C8.50729 30 9.99967 31.4924 9.99967 33.3334ZM36.6663 33.3334C36.6663 35.1743 35.174 36.6667 33.333 36.6667C31.4921 36.6667 29.9997 35.1743 29.9997 33.3334C29.9997 31.4924 31.4921 30 33.333 30C35.174 30 36.6663 31.4924 36.6663 33.3334ZM9.99967 6.66671C9.99967 8.50766 8.50729 10 6.66634 10C4.82539 10 3.33301 8.50766 3.33301 6.66671C3.33301 4.82576 4.82539 3.33337 6.66634 3.33337C8.50729 3.33337 9.99967 4.82576 9.99967 6.66671ZM36.6663 6.66671C36.6663 8.50766 35.174 10 33.333 10C31.4921 10 29.9997 8.50766 29.9997 6.66671C29.9997 4.82576 31.4921 3.33337 33.333 3.33337C35.174 3.33337 36.6663 4.82576 36.6663 6.66671Z" stroke="#6064BF" stroke-width="3" stroke-linecap="round" stroke-linejoin="round"/>
</svg>
