<svg width="40" height="40" viewBox="0 0 40 40" fill="none" xmlns="http://www.w3.org/2000/svg">
<path d="M22.5488 13.9198C21.5948 14.6 20.4273 15 19.1663 15C15.9447 15 13.333 12.3884 13.333 9.16671C13.333 5.94505 15.9447 3.33337 19.1663 3.33337C21.2547 3.33337 23.0867 4.43074 24.1172 6.08028M9.99967 33.4786H14.3502C14.9174 33.4786 15.4811 33.5461 16.031 33.6811L20.6278 34.7982C21.6252 35.0412 22.6643 35.0648 23.6721 34.869L28.7546 33.8802C30.0972 33.6187 31.3323 32.9758 32.3002 32.0342L35.8962 28.5362C36.9231 27.539 36.9231 25.9208 35.8962 24.9218C34.9716 24.0224 33.5076 23.9212 32.4616 24.6839L28.2707 27.7415C27.6705 28.1802 26.9402 28.4164 26.1891 28.4164H22.1422L24.7181 28.4163C26.17 28.4163 27.3461 27.2723 27.3461 25.8599V25.3486C27.3461 24.1759 26.5256 23.1533 25.3565 22.8698L21.3807 21.9029C20.7336 21.746 20.071 21.6667 19.4049 21.6667C17.7969 21.6667 14.8862 22.9981 14.8862 22.9981L9.99967 25.0415M33.333 10.8334C33.333 14.055 30.7213 16.6667 27.4997 16.6667C24.278 16.6667 21.6663 14.055 21.6663 10.8334C21.6663 7.61171 24.278 5.00004 27.4997 5.00004C30.7213 5.00004 33.333 7.61171 33.333 10.8334ZM3.33301 24.3334L3.33301 34C3.33301 34.9335 3.33301 35.4002 3.51466 35.7567C3.67445 36.0703 3.92942 36.3253 4.24302 36.485C4.59954 36.6667 5.06625 36.6667 5.99967 36.6667H7.33301C8.26643 36.6667 8.73314 36.6667 9.08966 36.4851C9.40326 36.3253 9.65823 36.0703 9.81802 35.7567C9.99967 35.4002 9.99967 34.9335 9.99967 34V24.3334C9.99967 23.4 9.99967 22.9332 9.81802 22.5767C9.65823 22.2631 9.40326 22.0082 9.08966 21.8484C8.73314 21.6667 8.26643 21.6667 7.33301 21.6667L5.99968 21.6667C5.06625 21.6667 4.59954 21.6667 4.24302 21.8484C3.92942 22.0082 3.67445 22.2631 3.51466 22.5767C3.33301 22.9332 3.33301 23.4 3.33301 24.3334Z" stroke="#6064BF" stroke-width="3" stroke-linecap="round" stroke-linejoin="round"/>
</svg>
