<svg width="231" height="231" viewBox="0 0 231 231" fill="none" xmlns="http://www.w3.org/2000/svg">
<path fill-rule="evenodd" clip-rule="evenodd" d="M58.2056 8.3616L82.1297 49.8258C82.487 50.4465 82.6749 51.1502 82.6746 51.8665C82.6743 52.5827 82.4857 53.2862 82.1278 53.9067C81.77 54.5271 81.2553 55.0425 80.6355 55.4014C80.0157 55.7603 79.3124 55.9499 78.5962 55.9514L30.7228 55.9549C30.006 55.9541 29.3019 55.7647 28.6814 55.4057C28.0609 55.0468 27.5457 54.5309 27.1877 53.9098C26.8297 53.2888 26.6413 52.5844 26.6416 51.8676C26.6419 51.1507 26.8308 50.4465 27.1893 49.8258L51.118 8.3616C51.4777 7.74024 51.9945 7.22438 52.6165 6.86576C53.2385 6.50714 53.9438 6.31836 54.6618 6.31836C55.3798 6.31836 56.0851 6.50714 56.7071 6.86576C57.3291 7.22438 57.8459 7.74024 58.2056 8.3616ZM54.6584 45.3785C55.0603 45.3785 55.4457 45.2188 55.7299 44.9346C56.0141 44.6504 56.1737 44.265 56.1737 43.8631C56.1737 43.4612 56.0141 43.0758 55.7299 42.7916C55.4457 42.5074 55.0603 42.3478 54.6584 42.3478C54.2565 42.3478 53.871 42.5074 53.5869 42.7916C53.3027 43.0758 53.143 43.4612 53.143 43.8631C53.143 44.265 53.3027 44.6504 53.5869 44.9346C53.871 45.2188 54.2565 45.3785 54.6584 45.3785Z" fill="#FFBEBD"/>
<path d="M183.372 44.8066C174.736 43.1707 166.497 48.2505 165.004 56.1487C164.497 58.9153 164.855 61.7704 166.031 64.3258L162.301 70.4331L169.368 68.9935C171.741 71.2689 174.728 72.8004 177.96 73.3995C186.597 75.0354 194.836 69.9555 196.328 62.0585C197.832 54.1626 192.031 46.4424 183.372 44.8066Z" fill="#FFBEBD"/>
<path d="M74.8234 97.4553C75.0124 97.4553 75.1996 97.4181 75.3743 97.3457C75.5489 97.2734 75.7076 97.1674 75.8413 97.0337C75.975 96.9 76.081 96.7413 76.1534 96.5667C76.2257 96.392 76.2629 96.2048 76.2629 96.0158C76.2629 95.8267 76.2257 95.6395 76.1534 95.4649C76.081 95.2902 75.975 95.1315 75.8413 94.9978C75.7076 94.8641 75.5489 94.7581 75.3743 94.6858C75.1996 94.6134 75.0124 94.5762 74.8234 94.5762C74.4416 94.5762 74.0754 94.7278 73.8054 94.9978C73.5355 95.2678 73.3838 95.634 73.3838 96.0158C73.3838 96.3976 73.5355 96.7637 73.8054 97.0337C74.0754 97.3037 74.4416 97.4553 74.8234 97.4553Z" fill="#FFBEBD"/>
<path d="M87.7786 108.449C87.7786 108.734 87.6941 109.012 87.536 109.249C87.3778 109.485 87.1529 109.67 86.8899 109.779C86.6268 109.888 86.3374 109.916 86.0581 109.861C85.7789 109.805 85.5224 109.668 85.3211 109.467C85.1197 109.265 84.9826 109.009 84.9271 108.73C84.8715 108.45 84.9 108.161 85.009 107.898C85.118 107.635 85.3025 107.41 85.5392 107.252C85.7759 107.094 86.0543 107.009 86.339 107.009C86.7199 107.012 87.0843 107.165 87.3536 107.434C87.6229 107.704 87.7756 108.068 87.7786 108.449Z" fill="#FFBEBD"/>
<path d="M101.236 97.9791C101.236 98.2638 101.151 98.5422 100.993 98.7789C100.835 99.0157 100.61 99.2002 100.347 99.3091C100.084 99.4181 99.7944 99.4466 99.5152 99.391C99.2359 99.3355 98.9794 99.1984 98.7781 98.9971C98.5768 98.7957 98.4397 98.5392 98.3841 98.26C98.3286 97.9807 98.3571 97.6913 98.466 97.4282C98.575 97.1652 98.7595 96.9403 98.9962 96.7822C99.233 96.624 99.5113 96.5396 99.796 96.5396C100.177 96.5431 100.541 96.696 100.81 96.9652C101.079 97.2344 101.232 97.5984 101.236 97.9791Z" fill="#FFBEBD"/>
<path d="M116.023 110.28C116.023 110.564 115.939 110.842 115.781 111.079C115.623 111.315 115.398 111.5 115.136 111.609C114.873 111.717 114.584 111.746 114.305 111.691C114.026 111.635 113.769 111.498 113.568 111.297C113.367 111.096 113.23 110.84 113.174 110.561C113.119 110.282 113.147 109.993 113.256 109.73C113.364 109.467 113.549 109.242 113.785 109.084C114.021 108.926 114.299 108.842 114.584 108.841C114.964 108.844 115.329 108.997 115.598 109.266C115.867 109.535 116.02 109.899 116.023 110.28Z" fill="#FFBEBD"/>
<path d="M128.585 97.9791C128.584 98.2637 128.499 98.5418 128.341 98.7784C128.183 99.0151 127.959 99.1999 127.696 99.3096C127.499 99.3919 127.287 99.4294 127.074 99.4194C126.86 99.4094 126.652 99.3522 126.464 99.2519C126.275 99.1516 126.112 99.0107 125.984 98.8394C125.857 98.6681 125.77 98.4707 125.728 98.2614C125.686 98.0521 125.692 97.8361 125.744 97.6292C125.796 97.4222 125.893 97.2294 126.029 97.0646C126.164 96.8999 126.335 96.7673 126.528 96.6765C126.721 96.5857 126.932 96.5389 127.145 96.5396C127.526 96.5434 127.89 96.6964 128.159 96.9655C128.428 97.2346 128.581 97.5985 128.585 97.9791Z" fill="#FFBEBD"/>
<path d="M144.289 98.8077C144.288 99.0923 144.203 99.3704 144.045 99.607C143.887 99.8437 143.663 100.028 143.4 100.138C143.203 100.221 142.991 100.258 142.778 100.248C142.564 100.238 142.356 100.181 142.168 100.081C141.979 99.9802 141.816 99.8393 141.688 99.668C141.561 99.4967 141.474 99.2993 141.432 99.09C141.39 98.8807 141.396 98.6647 141.448 98.4578C141.5 98.2508 141.597 98.058 141.733 97.8932C141.868 97.7285 142.039 97.5959 142.232 97.5051C142.425 97.4143 142.636 97.3675 142.849 97.3682C143.23 97.3718 143.594 97.5246 143.863 97.7938C144.133 98.063 144.285 98.4271 144.289 98.8077Z" fill="#FFBEBD"/>
<path d="M160.232 97.9792C160.424 97.9846 160.616 97.9514 160.795 97.8815C160.975 97.8117 161.138 97.7065 161.276 97.5724C161.414 97.4382 161.524 97.2777 161.599 97.1004C161.674 96.9231 161.712 96.7326 161.712 96.5402C161.712 96.3477 161.674 96.1572 161.599 95.9799C161.524 95.8026 161.414 95.6421 161.276 95.508C161.138 95.3738 160.975 95.2687 160.795 95.1988C160.616 95.1289 160.424 95.0957 160.232 95.1012C159.857 95.1117 159.502 95.268 159.24 95.5367C158.979 95.8054 158.833 96.1654 158.833 96.5402C158.833 96.9149 158.979 97.2749 159.24 97.5436C159.502 97.8123 159.857 97.9686 160.232 97.9792Z" fill="#FFBEBD"/>
<path d="M153.973 112.047C153.972 112.331 153.887 112.609 153.729 112.846C153.571 113.083 153.347 113.267 153.084 113.377C152.887 113.459 152.674 113.497 152.461 113.487C152.248 113.477 152.04 113.42 151.851 113.319C151.663 113.219 151.499 113.078 151.372 112.907C151.245 112.736 151.157 112.538 151.116 112.329C151.074 112.119 151.079 111.904 151.131 111.697C151.183 111.49 151.281 111.297 151.416 111.132C151.552 110.967 151.722 110.835 151.916 110.744C152.109 110.653 152.32 110.606 152.533 110.607C152.722 110.605 152.91 110.641 153.086 110.713C153.261 110.785 153.421 110.891 153.555 111.025C153.689 111.159 153.795 111.318 153.866 111.494C153.938 111.669 153.974 111.857 153.973 112.047Z" fill="#FFBEBD"/>
<path d="M53.0576 91.0659V98.1318C54.061 97.7174 55.124 97.2811 56.2421 96.8231V93.2138C55.0549 92.7046 53.9745 91.9759 53.0576 91.0659Z" fill="#6064BF"/>
<path d="M53.0576 106.442V224.413H56.2421V104.458C55.2388 105.09 54.0839 105.832 53.0576 106.442Z" fill="#6064BF"/>
<path d="M119.36 82.2109L117.616 84.6975L117.66 82.5817L119.36 82.2109Z" fill="#6064BF"/>
<path d="M163.418 89.3167L163.941 88.9895C164.056 88.9298 168.573 87.3594 168.648 87.3318C165.685 85.8532 163.09 86.5076 163.418 89.3167Z" fill="#6064BF"/>
<path d="M172.882 95.7544L169.897 96.8014C171.904 97.6302 173.915 97.5177 174.457 95.8382L172.882 95.7544Z" fill="#6064BF"/>
<path d="M109.654 221.163C109.402 218.618 108.845 216.113 107.996 213.701C103.342 215.032 98.4086 215.032 93.7545 213.701C87.583 215.49 80.5378 220.963 76.8516 224.41C89.2395 224.41 97.4407 224.301 106.862 224.279C107.458 224.282 108.038 224.094 108.52 223.743C109.001 223.392 109.357 222.897 109.537 222.329C109.658 221.953 109.698 221.556 109.654 221.163Z" fill="#6064BF"/>
<path d="M178.793 202.537L174.736 200.355C173.122 205.656 171.203 207.226 166.208 210.498C168.716 214.25 168.127 216.104 167.844 217.193C165.203 219.68 163.875 219.669 162.043 224.425H171.227C172.46 224.453 173.675 224.127 174.73 223.488C175.785 222.848 176.635 221.921 177.181 220.815C178.559 217.83 179.707 211.786 180.997 208.231C181.398 207.177 181.395 206.012 180.988 204.961C180.581 203.909 179.799 203.046 178.793 202.537Z" fill="#6064BF"/>
<path d="M181.607 64.1955C181.597 64.3947 181.509 64.5822 181.362 64.717C181.215 64.8518 181.021 64.923 180.821 64.9152C180.697 64.9104 180.576 64.875 180.469 64.812C180.363 64.749 180.273 64.6605 180.208 64.5544C180.144 64.4483 180.107 64.3279 180.101 64.2039C180.094 64.08 180.119 63.9564 180.172 63.8442C180.246 63.6874 180.372 63.5611 180.529 63.4866C180.686 63.4121 180.864 63.3939 181.032 63.4352C181.201 63.4765 181.35 63.5746 181.455 63.7131C181.559 63.8516 181.613 64.022 181.607 64.1955Z" fill="#6064BF"/>
<path d="M53.0801 90.5646V55.9551L56.2646 55.9517V90.7609C54.3245 90.4119 53.3854 90.3901 53.0801 90.5646Z" fill="#6064BF"/>
<path d="M140.691 66.8159C141.374 66.6202 141.964 66.1877 142.357 65.596C142.75 65.0043 142.92 64.2919 142.835 63.5867C142.752 62.8811 142.42 62.2283 141.899 61.7452C141.378 61.262 140.703 60.98 139.993 60.9497C140.492 60.4995 140.826 59.8948 140.94 59.2324C141.055 58.5701 140.943 57.8885 140.624 57.2968C140.305 56.7053 139.796 56.2384 139.179 55.9713C138.562 55.7041 137.873 55.6523 137.223 55.824C137.433 55.3775 137.53 54.8859 137.506 54.3929C137.481 53.8999 137.335 53.4206 137.08 52.9975C136.826 52.5744 136.471 52.2206 136.048 51.9673C135.624 51.714 135.144 51.5691 134.651 51.5454C133.992 51.5126 133.34 51.6978 132.796 52.0723C132.874 51.3867 132.713 50.6952 132.34 50.1144C131.968 49.5335 131.407 49.0986 130.751 48.883C130.096 48.6674 129.386 48.6842 128.741 48.9305C128.097 49.1769 127.557 49.6377 127.212 50.2356C127.08 49.5213 126.702 48.8756 126.145 48.4103C125.587 47.9449 124.884 47.6891 124.158 47.687C123.431 47.6845 122.727 47.9354 122.165 48.3967C121.604 48.8579 121.221 49.5006 121.083 50.2138C120.743 49.6144 120.206 49.1503 119.564 48.8995C118.922 48.6487 118.213 48.6263 117.557 48.8362C116.9 49.0464 116.336 49.4755 115.958 50.0517C115.579 50.6279 115.41 51.3165 115.479 52.0023C114.938 51.6213 114.288 51.4289 113.627 51.4547C112.967 51.4805 112.333 51.7232 111.824 52.1452C111.315 52.5672 110.959 53.145 110.812 53.7894C110.664 54.4338 110.733 55.1089 111.007 55.7103C110.36 55.5383 109.673 55.5874 109.056 55.8496C108.439 56.1119 107.928 56.5724 107.602 57.1583C107.277 57.7442 107.156 58.4219 107.259 59.0841C107.362 59.7463 107.684 60.3552 108.172 60.8143C107.462 60.8395 106.785 61.1156 106.26 61.5935C105.735 62.0714 105.396 62.72 105.305 63.424C105.213 64.1279 105.374 64.8416 105.76 65.4379C106.145 66.0342 106.729 66.4745 107.408 66.6805C106.728 66.8812 106.141 67.3169 105.751 67.9099C105.362 68.503 105.196 69.215 105.282 69.9192C105.368 70.6234 105.702 71.274 106.223 71.7554C106.744 72.2368 107.419 72.5176 108.128 72.5478C107.636 73.0033 107.31 73.6105 107.203 74.2726C107.096 74.9347 107.214 75.6136 107.538 76.201C107.861 76.7883 108.373 77.2503 108.99 77.5133C109.607 77.7763 110.294 77.825 110.942 77.6518C110.72 78.1238 110.625 78.6457 110.668 79.1656C110.71 79.6854 110.888 80.1851 111.184 80.6148C111.479 81.0446 111.882 81.3893 112.353 81.6146C112.823 81.84 113.344 81.9382 113.865 81.8994C112.534 80.8306 112.054 78.4554 114.235 73.4157C118.118 64.4522 121.672 70.7111 121.628 74.3536C121.694 75.008 122.065 75.1389 123.046 74.3318C125.097 72.6305 126.885 76.2076 122.981 78.2568C122.239 78.6505 121.738 79.5196 122.37 84.3411C122.409 84.6855 122.467 85.0288 122.545 85.3663C122.97 85.5837 123.441 85.6979 123.919 85.6995C124.396 85.7011 124.868 85.5902 125.295 85.3756C125.722 85.1611 126.092 84.849 126.376 84.4646C126.66 84.0803 126.849 83.6345 126.929 83.1633C127.265 83.7658 127.799 84.2343 128.439 84.4905C129.08 84.7466 129.789 84.7748 130.448 84.5704C131.108 84.3659 131.676 83.9412 132.06 83.3674C132.443 82.7936 132.617 82.1055 132.554 81.4184C133.09 81.8033 133.738 82.001 134.397 81.9808C135.057 81.9607 135.691 81.7237 136.203 81.3067C136.714 80.8897 137.074 80.3158 137.226 79.6738C137.379 79.0319 137.315 78.3575 137.046 77.7551C137.692 77.9293 138.377 77.8833 138.994 77.6243C139.61 77.3653 140.123 76.9082 140.451 76.3252C140.779 75.7422 140.903 75.0666 140.804 74.4051C140.704 73.7437 140.388 73.1342 139.903 72.673C140.605 72.6393 141.273 72.3607 141.791 71.8855C142.308 71.4104 142.643 70.7689 142.737 70.0725C142.83 69.3761 142.677 68.6689 142.303 68.0739C141.929 67.479 141.359 67.0338 140.691 66.8159Z" fill="#6064BF"/>
<path d="M74.8224 97.4558C75.0114 97.4558 75.1986 97.4186 75.3733 97.3462C75.5479 97.2739 75.7066 97.1679 75.8403 97.0342C75.974 96.9005 76.08 96.7418 76.1524 96.5671C76.2247 96.3925 76.262 96.2053 76.262 96.0162C76.262 95.8272 76.2247 95.64 76.1524 95.4653C76.08 95.2907 75.974 95.132 75.8403 94.9983C75.7066 94.8646 75.5479 94.7586 75.3733 94.6862C75.1986 94.6139 75.0114 94.5767 74.8224 94.5767C74.4406 94.5767 74.0744 94.7283 73.8045 94.9983C73.5345 95.2683 73.3828 95.6344 73.3828 96.0162C73.3828 96.398 73.5345 96.7642 73.8045 97.0342C74.0744 97.3041 74.4406 97.4558 74.8224 97.4558Z" stroke="#292B59" stroke-width="1.15376"/>
<path d="M87.7795 108.449C87.7795 108.734 87.6951 109.012 87.5369 109.249C87.3788 109.485 87.1539 109.67 86.8909 109.779C86.6278 109.888 86.3384 109.916 86.0591 109.861C85.7799 109.805 85.5234 109.668 85.322 109.467C85.1207 109.265 84.9836 109.009 84.9281 108.73C84.8725 108.45 84.901 108.161 85.01 107.898C85.1189 107.635 85.3034 107.41 85.5402 107.252C85.7769 107.094 86.0552 107.009 86.34 107.009C86.7208 107.012 87.0853 107.165 87.3546 107.434C87.6239 107.704 87.7765 108.068 87.7795 108.449Z" stroke="#292B59" stroke-width="1.15376"/>
<path d="M101.236 97.9791C101.236 98.2638 101.151 98.5422 100.993 98.7789C100.835 99.0157 100.61 99.2002 100.347 99.3091C100.084 99.4181 99.7944 99.4466 99.5152 99.391C99.2359 99.3355 98.9794 99.1984 98.7781 98.9971C98.5768 98.7957 98.4397 98.5392 98.3841 98.26C98.3286 97.9807 98.3571 97.6913 98.466 97.4282C98.575 97.1652 98.7595 96.9403 98.9962 96.7822C99.233 96.624 99.5113 96.5396 99.796 96.5396C100.177 96.5431 100.541 96.696 100.81 96.9652C101.079 97.2344 101.232 97.5984 101.236 97.9791Z" stroke="#292B59" stroke-width="1.15376"/>
<path d="M116.023 110.28C116.023 110.564 115.939 110.842 115.781 111.079C115.623 111.315 115.398 111.5 115.136 111.609C114.873 111.717 114.584 111.746 114.305 111.691C114.026 111.635 113.769 111.498 113.568 111.297C113.367 111.096 113.23 110.84 113.174 110.561C113.119 110.282 113.147 109.993 113.256 109.73C113.364 109.467 113.549 109.242 113.785 109.084C114.021 108.926 114.299 108.842 114.584 108.841C114.964 108.844 115.329 108.997 115.598 109.266C115.867 109.535 116.02 109.899 116.023 110.28Z" stroke="#292B59" stroke-width="1.15376"/>
<path d="M128.586 97.9791C128.585 98.2637 128.5 98.5418 128.342 98.7784C128.184 99.0151 127.96 99.1999 127.697 99.3096C127.5 99.3919 127.288 99.4294 127.074 99.4194C126.861 99.4094 126.653 99.3522 126.465 99.2519C126.276 99.1516 126.113 99.0107 125.985 98.8394C125.858 98.6681 125.77 98.4707 125.729 98.2614C125.687 98.0521 125.693 97.8361 125.745 97.6292C125.797 97.4222 125.894 97.2294 126.03 97.0646C126.165 96.8999 126.336 96.7673 126.529 96.6765C126.722 96.5857 126.933 96.5389 127.146 96.5396C127.527 96.5434 127.891 96.6964 128.16 96.9655C128.429 97.2346 128.582 97.5985 128.586 97.9791Z" stroke="#292B59" stroke-width="1.15376"/>
<path d="M144.289 98.8082C144.288 99.0928 144.203 99.3709 144.045 99.6075C143.887 99.8442 143.663 100.029 143.4 100.139C143.203 100.221 142.991 100.259 142.778 100.249C142.564 100.239 142.356 100.181 142.168 100.081C141.979 99.9807 141.816 99.8398 141.688 99.6685C141.561 99.4972 141.474 99.2998 141.432 99.0905C141.39 98.8812 141.396 98.6652 141.448 98.4583C141.5 98.2513 141.597 98.0585 141.733 97.8937C141.868 97.729 142.039 97.5964 142.232 97.5056C142.425 97.4148 142.636 97.368 142.849 97.3687C143.23 97.3723 143.594 97.5251 143.863 97.7943C144.133 98.0635 144.285 98.4275 144.289 98.8082Z" stroke="#292B59" stroke-width="1.15376"/>
<path d="M160.232 97.9792C160.424 97.9846 160.616 97.9514 160.795 97.8815C160.975 97.8117 161.138 97.7065 161.276 97.5724C161.414 97.4382 161.524 97.2777 161.599 97.1004C161.674 96.9231 161.712 96.7326 161.712 96.5402C161.712 96.3477 161.674 96.1572 161.599 95.9799C161.524 95.8026 161.414 95.6421 161.276 95.508C161.138 95.3738 160.975 95.2687 160.795 95.1988C160.616 95.1289 160.424 95.0957 160.232 95.1012C159.857 95.1117 159.502 95.268 159.24 95.5367C158.979 95.8054 158.833 96.1654 158.833 96.5402C158.833 96.9149 158.979 97.2749 159.24 97.5436C159.502 97.8123 159.857 97.9686 160.232 97.9792Z" stroke="#292B59" stroke-width="1.15376"/>
<path d="M153.972 112.047C153.971 112.331 153.886 112.609 153.728 112.846C153.57 113.083 153.346 113.267 153.083 113.377C152.886 113.459 152.673 113.497 152.46 113.487C152.247 113.477 152.039 113.42 151.85 113.319C151.662 113.219 151.498 113.078 151.371 112.907C151.244 112.736 151.156 112.538 151.115 112.329C151.073 112.119 151.078 111.904 151.13 111.697C151.182 111.49 151.28 111.297 151.415 111.132C151.551 110.967 151.721 110.835 151.915 110.744C152.108 110.653 152.319 110.606 152.532 110.607C152.722 110.605 152.909 110.641 153.085 110.713C153.26 110.785 153.42 110.891 153.554 111.025C153.688 111.159 153.794 111.318 153.865 111.494C153.937 111.669 153.973 111.857 153.972 112.047Z" stroke="#292B59" stroke-width="1.15376"/>
<path d="M181.606 64.1952C181.596 64.3945 181.508 64.5819 181.361 64.7167C181.214 64.8515 181.02 64.9228 180.82 64.915C180.696 64.9102 180.575 64.8747 180.469 64.8118C180.362 64.7488 180.272 64.6603 180.208 64.5542C180.143 64.4481 180.106 64.3276 180.1 64.2037C180.093 64.0797 180.118 63.9561 180.171 63.8439C180.245 63.6871 180.371 63.5608 180.528 63.4863C180.685 63.4118 180.863 63.3937 181.031 63.435C181.2 63.4762 181.349 63.5744 181.454 63.7129C181.558 63.8514 181.612 64.0217 181.606 64.1952Z" stroke="#292B59" stroke-width="1.15376"/>
<path d="M53.0566 90.5644V55.9514" stroke="#292B59" stroke-width="1.15376" stroke-linecap="round" stroke-linejoin="round"/>
<path d="M53.0566 98.1319V91.0879" stroke="#292B59" stroke-width="1.15376" stroke-linecap="round" stroke-linejoin="round"/>
<path d="M53.0566 224.435V106.508" stroke="#292B59" stroke-width="1.15376" stroke-linecap="round" stroke-linejoin="round"/>
<path d="M56.2637 104.544V224.434" stroke="#292B59" stroke-width="1.15376" stroke-linecap="round" stroke-linejoin="round"/>
<path d="M56.2637 93.2256V96.8452" stroke="#292B59" stroke-width="1.15376" stroke-linecap="round" stroke-linejoin="round"/>
<path d="M56.2637 55.9514V90.7607" stroke="#292B59" stroke-width="1.15376" stroke-linecap="round" stroke-linejoin="round"/>
<path d="M172.074 98.5898C177.533 110.978 178.205 124.951 173.959 137.806C169.713 150.66 160.851 161.484 149.087 168.183" stroke="#292B59" stroke-width="1.15376" stroke-linecap="round" stroke-linejoin="round"/>
<path d="M75.4551 92.0911C82.2832 80.9623 92.8682 72.6443 105.296 68.6411M164.883 86.6886C159.052 79.3431 151.428 73.6211 142.747 70.0727" stroke="#292B59" stroke-width="1.15376" stroke-linecap="round" stroke-linejoin="round"/>
<path d="M100.93 171.087C90.9944 166.92 82.5104 159.912 76.5433 150.941C70.5761 141.97 67.3917 131.437 67.3896 120.662C67.3896 115.285 68.1749 109.936 69.7201 104.785" stroke="#292B59" stroke-width="1.15376" stroke-linecap="round" stroke-linejoin="round"/>
<path d="M131.247 174.555C128.229 175.19 125.144 175.447 122.063 175.318C120.571 175.318 119.07 175.258 117.593 175.14" stroke="#292B59" stroke-width="1.15376" stroke-linecap="round" stroke-linejoin="round"/>
<path d="M174.016 96.627C169.741 100.902 164.087 107.092 158.247 114.141C156.791 115.905 154.717 117.048 152.447 117.336C150.178 117.624 147.884 117.035 146.034 115.689C140.908 111.961 137.44 109.278 131.813 105.155" stroke="#292B59" stroke-width="1.15376" stroke-linecap="round" stroke-linejoin="round"/>
<path d="M117.589 84.7337L119.359 82.2104" stroke="#292B59" stroke-width="1.15376" stroke-linecap="round" stroke-linejoin="round"/>
<path d="M163.901 87.2993C159.097 91.4681 154.792 96.179 151.071 101.338C151.071 101.338 140.187 92.2242 132.73 87.685C125.029 82.9978 123.217 90.7387 122.369 84.3042C121.734 79.4827 122.238 78.6102 122.98 78.2199C126.883 76.1627 125.089 72.5833 123.045 74.2938C121.829 75.312 121.693 74.8677 121.641 73.9161C121.439 70.2425 117.999 64.7322 114.256 73.3777C108.975 85.5693 119.359 82.2103 119.359 82.2103" stroke="#292B59" stroke-width="1.15376" stroke-linecap="round" stroke-linejoin="round"/>
<path d="M117.658 82.5664C117.787 84.4353 117.482 87.4465 115.63 87.0091C110.878 85.8864 108.843 86.6326 106.142 88.7311C100.77 92.9075 89.85 99.0905 89.85 99.0905C83.3731 95.1874 78.6835 93.5079 72.6428 90.9123C69.4429 94.4483 67.584 98.9944 67.3896 103.759C75.9996 107.446 79.2989 109.559 86.0376 112.854C87.547 113.596 89.2188 113.947 90.8994 113.875C92.58 113.803 94.2154 113.309 95.6554 112.439C99.8903 109.872 103.877 107.511 108.218 105.221" stroke="#292B59" stroke-width="1.15376" stroke-linecap="round" stroke-linejoin="round"/>
<path d="M168.65 87.3365C166.05 86.0358 163.735 86.379 163.423 88.3788C163.156 90.1008 164.325 92.1328 165.436 93.4656C166.987 95.416 169.171 96.7626 171.611 97.2723C172.178 97.4308 172.784 97.3717 173.31 97.1064C173.836 96.8411 174.244 96.3889 174.453 95.8385" stroke="#292B59" stroke-width="1.15376" stroke-linecap="round" stroke-linejoin="round"/>
<path d="M106.862 96.082C107.335 103.286 109.178 110.333 112.293 116.846C118.952 118.612 124.354 118.198 131.094 116.148C130.564 111.1 131.229 105.999 133.035 101.256" stroke="#292B59" stroke-width="1.15376" stroke-linecap="round" stroke-linejoin="round"/>
<path d="M169.894 96.8015C172.986 95.6094 176.166 94.6546 179.404 93.9453C182.305 93.4486 185.256 93.3021 188.193 93.5091C192.512 93.7639 193.202 92.787 188.738 91.2625C187.1 90.7022 178.727 89.5175 176.873 89.2558C173.907 88.8391 169.526 88.4063 166.622 88.3179C166.402 88.3183 166.181 88.3321 165.963 88.3592" stroke="#292B59" stroke-width="1.15376" stroke-linecap="round" stroke-linejoin="round"/>
<path d="M163.417 89.3165C163.479 89.2775 173.545 85.5282 177.55 83.6914C182.198 81.5561 180.947 83.2069 179.753 84.6293C178.876 85.674 174.54 88.5554 176.874 89.2534" stroke="#292B59" stroke-width="1.15376" stroke-linecap="round" stroke-linejoin="round"/>
<path d="M172.86 95.7452C175.501 95.1127 180.713 95.6614 183.023 95.7935C184.899 95.9014 187.626 96.5167 189.72 96.7118C190.2 96.7566 190.723 96.0575 187.931 94.9233C186.883 94.4997 185.036 93.734 184.163 93.4653" stroke="#292B59" stroke-width="1.15376" stroke-linecap="round" stroke-linejoin="round"/>
<path d="M172.749 95.7935C174.921 95.8015 177.085 96.0368 179.208 96.496C180.93 96.8886 183.816 97.9781 185.663 98.4809C186.122 98.606 186.753 98.001 184.201 96.4088C183.878 96.2029 183.551 96.0038 183.22 95.8118" stroke="#292B59" stroke-width="1.15376" stroke-linecap="round" stroke-linejoin="round"/>
<path d="M67.5827 101.818C64.0604 101.296 60.4991 101.084 56.9397 101.185C54.0009 101.41 51.0953 101.966 48.2805 102.843C44.1374 104.131 43.2293 103.316 47.2117 100.777C53.9362 97.5711 60.8914 94.8738 68.019 92.7074C69.0301 92.4313 70.1005 92.4617 71.0944 92.7947" stroke="#292B59" stroke-width="1.15376" stroke-linecap="round" stroke-linejoin="round"/>
<path d="M58.3553 96.0164C60.4503 94.7731 55.5014 93.0316 54.4096 92.228C52.9276 91.1352 51.2929 89.8402 56.3291 90.7885C60.5475 91.6474 64.8175 92.2295 69.1119 92.5311" stroke="#292B59" stroke-width="1.15376" stroke-linecap="round" stroke-linejoin="round"/>
<path d="M52.1631 101.862C51.2447 102.429 49.4171 103.763 48.8913 104.158C46.4805 105.941 47.1257 106.495 47.5826 106.339C49.3964 105.719 52.1849 104.398 53.8644 103.874C56.5909 103.023 61.8245 101.213 64.3111 101.475" stroke="#292B59" stroke-width="1.15376" stroke-linecap="round" stroke-linejoin="round"/>
<path d="M53.711 103.912C53.3402 104.283 53.0566 104.588 52.8821 104.741C50.7882 106.878 51.5263 107.331 51.9442 107.096C53.6111 106.159 56.155 104.44 57.7461 103.653C59.6903 102.735 61.7117 101.99 63.7869 101.428" stroke="#292B59" stroke-width="1.15376" stroke-linecap="round" stroke-linejoin="round"/>
<path d="M109.654 221.163C109.402 218.618 108.845 216.113 107.996 213.701C103.342 215.032 98.4086 215.032 93.7545 213.701C87.583 215.49 80.5378 220.963 76.8516 224.41C89.2383 224.41 97.4407 224.301 106.862 224.279C107.257 224.28 107.647 224.197 108.008 224.035C108.369 223.876 108.692 223.641 108.956 223.347C109.22 223.053 109.418 222.706 109.538 222.329C109.659 221.953 109.699 221.556 109.653 221.163H109.654Z" stroke="#292B59" stroke-width="1.15376" stroke-linecap="round" stroke-linejoin="round"/>
<path d="M115.456 179.567C115.6 185.657 110.742 197.733 107.994 213.726" stroke="#292B59" stroke-width="1.15376" stroke-linecap="round" stroke-linejoin="round"/>
<path d="M93.7549 213.704L100.845 177.078" stroke="#292B59" stroke-width="1.15376" stroke-linecap="round" stroke-linejoin="round"/>
<path d="M124.789 152.614L116.218 179.44C110.57 180.434 104.753 179.399 99.7949 176.518L112.293 116.868" stroke="#292B59" stroke-width="1.15376" stroke-linecap="round" stroke-linejoin="round"/>
<path d="M178.814 202.559L174.757 200.377C173.143 205.677 171.198 207.247 166.207 210.519C168.715 214.27 168.126 216.124 167.843 217.214C165.202 219.7 163.874 219.668 162.042 224.423H171.226C172.459 224.45 173.674 224.125 174.729 223.486C175.784 222.846 176.634 221.919 177.181 220.813C178.558 217.828 179.706 211.784 180.996 208.229C181.398 207.181 181.397 206.022 180.994 204.974C180.591 203.927 179.814 203.067 178.814 202.559Z" stroke="#292B59" stroke-width="1.15376" stroke-linecap="round" stroke-linejoin="round"/>
<path d="M166.229 210.52L139.948 182.188" stroke="#292B59" stroke-width="1.15376" stroke-linecap="round" stroke-linejoin="round"/>
<path d="M151.377 173.224C155.073 176.265 158.417 179.711 161.345 183.497C165.355 188.995 174.758 200.373 174.758 200.373" stroke="#292B59" stroke-width="1.15376" stroke-linecap="round" stroke-linejoin="round"/>
<path d="M119.359 131.938L129.393 170.215C130.155 173.12 131.711 175.756 133.886 177.827L138.885 182.586C144.213 180.869 148.772 177.341 151.769 172.614L147.255 165.152L144.398 136.057C143.349 125.22 136.88 117.748 131.094 116.144" stroke="#292B59" stroke-width="1.15376" stroke-linecap="round" stroke-linejoin="round"/>
<path d="M127.146 86.1147C123.47 90.7373 120.548 95.912 118.488 101.447C115.587 96.6705 112.748 86.5234 112.748 86.5234" stroke="#292B59" stroke-width="1.15376" stroke-linecap="round" stroke-linejoin="round"/>
<path d="M30.6357 224.435H204.114" stroke="#292B59" stroke-width="1.15376" stroke-linecap="round" stroke-linejoin="round"/>
<path d="M183.372 44.8068C174.736 43.1709 166.497 48.2508 165.004 56.1489C164.497 58.9156 164.855 61.7706 166.031 64.326L162.301 70.4333L169.368 68.9937C171.741 71.2691 174.728 72.8007 177.96 73.3997C186.597 75.0356 194.836 69.9558 196.328 62.0588C197.832 54.1629 192.031 46.4427 183.372 44.8068Z" stroke="#292B59" stroke-width="1.15376" stroke-linecap="round" stroke-linejoin="round"/>
<path d="M180.842 60.8809C180.864 59.8994 181.24 59.183 182.456 57.5655C185.079 54.0768 183.489 51.6729 181.256 51.5673C180.857 51.549 180.458 51.6192 180.089 51.7727C179.72 51.9262 179.389 52.1593 179.121 52.4554C178.852 52.7514 178.652 53.1032 178.535 53.4854C178.418 53.8677 178.387 54.2711 178.444 54.6669" stroke="#292B59" stroke-width="1.15376" stroke-linecap="round" stroke-linejoin="round"/>
<path d="M171.377 166.594H176.088" stroke="#292B59" stroke-width="1.15376" stroke-linecap="round" stroke-linejoin="round"/>
<path d="M184.441 166.573H189.153" stroke="#292B59" stroke-width="1.15376" stroke-linecap="round" stroke-linejoin="round"/>
<path d="M180.265 157.695V162.407" stroke="#292B59" stroke-width="1.15376" stroke-linecap="round" stroke-linejoin="round"/>
<path d="M180.286 170.76V175.47" stroke="#292B59" stroke-width="1.15376" stroke-linecap="round" stroke-linejoin="round"/>
<path d="M173.973 160.312L177.31 163.628" stroke="#292B59" stroke-width="1.15376" stroke-linecap="round" stroke-linejoin="round"/>
<path d="M183.241 169.539L186.578 172.853" stroke="#292B59" stroke-width="1.15376" stroke-linecap="round" stroke-linejoin="round"/>
<path d="M186.557 160.291L183.22 163.628" stroke="#292B59" stroke-width="1.15376" stroke-linecap="round" stroke-linejoin="round"/>
<path d="M177.331 169.539L173.994 172.875" stroke="#292B59" stroke-width="1.15376" stroke-linecap="round" stroke-linejoin="round"/>
<path d="M30.7229 55.9514C30.0067 55.9499 29.3034 55.7603 28.6836 55.4014C28.0638 55.0425 27.5492 54.5271 27.1913 53.9067C26.8334 53.2862 26.6449 52.5827 26.6445 51.8665C26.6442 51.1502 26.8321 50.4465 27.1894 49.8258L51.1158 8.3616C51.4755 7.74024 51.9923 7.22438 52.6143 6.86576C53.2363 6.50714 53.9416 6.31836 54.6596 6.31836C55.3776 6.31836 56.083 6.50714 56.705 6.86576C57.327 7.22438 57.8437 7.74024 58.2035 8.3616L82.1298 49.8258C82.4883 50.4465 82.6772 51.1507 82.6775 51.8676C82.6778 52.5844 82.4895 53.2888 82.1314 53.9098C81.7734 54.5309 81.2582 55.0468 80.6377 55.4057C80.0172 55.7647 79.3132 55.9541 78.5963 55.9549L30.7229 55.9514Z" stroke="#292B59" stroke-width="1.15376" stroke-linecap="round" stroke-linejoin="round"/>
<path d="M88.694 31.9826C88.7197 32.2689 88.6888 32.5574 88.603 32.8317C88.5172 33.1061 88.3782 33.3608 88.1939 33.5814C88.0097 33.802 87.7838 33.9842 87.5291 34.1175C87.2744 34.2508 86.996 34.3326 86.7097 34.3583C86.4234 34.384 86.1349 34.3531 85.8606 34.2673C85.5862 34.1815 85.3315 34.0425 85.1109 33.8582C84.8903 33.674 84.7081 33.4481 84.5748 33.1934C84.4415 32.9387 84.3597 32.6603 84.334 32.374C84.2821 31.7959 84.462 31.2207 84.8341 30.7752C85.2062 30.3297 85.7401 30.0502 86.3183 29.9983C86.8964 29.9464 87.4716 30.1263 87.9171 30.4984C88.3627 30.8705 88.6421 31.4044 88.694 31.9826Z" stroke="#292B59" stroke-width="1.15376" stroke-linecap="round" stroke-linejoin="round"/>
<path d="M70.9521 190.803V199.615" stroke="#292B59" stroke-width="1.15376" stroke-linecap="round" stroke-linejoin="round"/>
<path d="M75.3687 195.209H66.5361" stroke="#292B59" stroke-width="1.15376" stroke-linecap="round" stroke-linejoin="round"/>
<path d="M122.544 85.3296C122.965 85.5559 123.434 85.6785 123.912 85.687C124.39 85.6955 124.863 85.5898 125.292 85.3786C125.721 85.1673 126.093 84.8567 126.378 84.4726C126.662 84.0885 126.851 83.642 126.928 83.1702C127.265 83.7727 127.798 84.2412 128.439 84.4974C129.079 84.7535 129.789 84.7818 130.448 84.5773C131.107 84.3729 131.676 83.9482 132.059 83.3743C132.442 82.8005 132.617 82.1124 132.553 81.4253C133.089 81.8102 133.737 82.0079 134.397 81.9877C135.056 81.9676 135.691 81.7307 136.202 81.3136C136.713 80.8966 137.073 80.3228 137.226 79.6808C137.378 79.0388 137.315 78.3644 137.045 77.762C137.724 77.951 138.447 77.8948 139.088 77.6034C139.729 77.312 140.247 76.804 140.55 76.1686C140.823 75.5929 140.907 74.9459 140.791 74.3195C140.675 73.6932 140.364 73.1194 139.903 72.6799C140.688 72.6579 141.433 72.3273 141.976 71.7598C142.519 71.1922 142.816 70.4335 142.804 69.6481C142.792 69.0134 142.582 68.3983 142.203 67.8895C141.823 67.3808 141.293 67.0041 140.688 66.8125C141.319 66.6273 141.873 66.2422 142.266 65.7151C142.66 65.188 142.871 64.5474 142.869 63.8898C142.859 63.1233 142.554 62.3901 142.018 61.8421C141.482 61.2941 140.756 60.9734 139.99 60.9463C140.443 60.5373 140.76 60 140.9 59.406C141.039 58.8119 140.994 58.1895 140.771 57.6217C140.549 57.0536 140.159 56.5665 139.653 56.2252C139.147 55.884 138.55 55.7048 137.94 55.7115C137.696 55.7169 137.454 55.7535 137.22 55.8206C137.502 55.2227 137.578 54.5486 137.438 53.9027C137.298 53.2568 136.949 52.6751 136.445 52.2478C135.941 51.8205 135.309 51.5714 134.649 51.539C133.989 51.5067 133.337 51.6929 132.793 52.0689C132.87 51.3838 132.708 50.6933 132.335 50.1133C131.963 49.5334 131.402 49.0993 130.747 48.8839C130.092 48.6685 129.383 48.6849 128.739 48.9304C128.095 49.1759 127.555 49.6355 127.209 50.2322C126.723 46.8789 121.605 46.8008 121.08 50.2103C120.826 49.7624 120.461 49.3873 120.02 49.1212C119.579 48.855 119.077 48.7067 118.562 48.6904C118.048 48.6742 117.537 48.7905 117.08 49.0283C116.623 49.2662 116.235 49.6175 115.953 50.0485C115.576 50.6248 115.407 51.3133 115.476 51.9989C114.935 51.6189 114.285 51.4273 113.625 51.4536C112.965 51.4798 112.332 51.7225 111.823 52.1442C111.315 52.5659 110.959 53.1432 110.811 53.787C110.663 54.4309 110.731 55.1055 111.004 55.7069C110.356 55.5315 109.667 55.5783 109.049 55.8398C108.43 56.1013 107.916 56.5624 107.59 57.1497C107.264 57.7369 107.144 58.4165 107.249 59.08C107.353 59.7436 107.677 60.3529 108.169 60.8109C107.458 60.8328 106.777 61.1073 106.25 61.5852C105.722 62.0631 105.382 62.7132 105.29 63.419C105.198 64.1248 105.361 64.8403 105.748 65.4373C106.136 66.0342 106.723 66.4737 107.406 66.6771C106.722 66.8751 106.132 67.3099 105.74 67.9036C105.348 68.4974 105.181 69.2112 105.267 69.9172C105.354 70.6232 105.689 71.2754 106.213 71.7568C106.737 72.2382 107.415 72.5174 108.125 72.5444C107.632 72.9995 107.305 73.6068 107.198 74.2694C107.09 74.9319 107.208 75.6115 107.532 76.1993C107.856 76.7871 108.367 77.2494 108.985 77.512C109.603 77.7747 110.291 77.8228 110.939 77.6484C110.712 78.127 110.617 78.6574 110.662 79.1851C110.708 79.7128 110.894 80.2188 111.199 80.6512C111.505 81.0835 111.921 81.4267 112.403 81.6455C112.886 81.8642 113.418 81.9507 113.944 81.8959" stroke="#292B59" stroke-width="1.15376" stroke-linecap="round" stroke-linejoin="round"/>
<path d="M147.125 178.001L141.432 171.217" stroke="#292B59" stroke-width="1.15376" stroke-linecap="round" stroke-linejoin="round"/>
<path d="M109.959 179.549L112.293 171.086" stroke="#292B59" stroke-width="1.15376" stroke-linecap="round" stroke-linejoin="round"/>
<path d="M127.146 123.738C130.265 127.51 133.733 129.102 137.461 129.059" stroke="#292B59" stroke-width="1.15376" stroke-linecap="round" stroke-linejoin="round"/>
<path d="M53.1436 43.8645C53.1436 44.2664 53.3032 44.6518 53.5874 44.936C53.8716 45.2202 54.257 45.3798 54.6589 45.3798C55.0608 45.3798 55.4462 45.2202 55.7304 44.936C56.0146 44.6518 56.1742 44.2664 56.1742 43.8645C56.1742 43.4626 56.0146 43.0771 55.7304 42.793C55.4462 42.5088 55.0608 42.3491 54.6589 42.3491C54.257 42.3491 53.8716 42.5088 53.5874 42.793C53.3032 43.0771 53.1436 43.4626 53.1436 43.8645Z" stroke="#292B59" stroke-width="1.15376"/>
<path d="M54.6367 22.2673V36.9455" stroke="#292B59" stroke-width="1.15376" stroke-linecap="round"/>
</svg>
