<svg width="38" height="32" viewBox="0 0 38 32" fill="none" xmlns="http://www.w3.org/2000/svg">
<path fill-rule="evenodd" clip-rule="evenodd" d="M37.3989 4.99783C31.7973 7.77442 28.9966 11.0369 28.9966 14.7853C31.3842 15.0629 33.3584 16.0463 34.9195 17.7354C36.4806 19.4244 37.2611 21.3796 37.2611 23.6009C37.2611 25.961 36.5035 27.9508 34.9884 29.5705C33.4732 31.1902 31.5678 32 29.2721 32C26.7009 32 24.4741 30.9472 22.5917 28.8417C20.7092 26.7361 19.768 24.1793 19.768 21.1714C19.768 12.1475 24.7725 5.09041 34.7818 0L37.3989 4.99783ZM17.6309 4.99783C11.9835 7.77442 9.1598 11.0369 9.1598 14.7853C11.5932 15.0629 13.5905 16.0463 15.1515 17.7354C16.7126 19.4244 17.4931 21.3796 17.4931 23.6009C17.4931 25.961 16.7241 27.9508 15.186 29.5705C13.6479 31.1902 11.731 32 9.43528 32C6.8641 32 4.64878 30.9472 2.78926 28.8417C0.929745 26.7361 0 24.1793 0 21.1714C0 12.1475 4.9816 5.09041 14.9449 0L17.6309 4.99783Z" fill="#FF5D59"/>
</svg>
