<svg width="30" height="26" viewBox="0 0 30 26" fill="none" xmlns="http://www.w3.org/2000/svg">
<path d="M3.80615 1C9.59406 1 17.2038 1 19.7616 1C20.2251 1 20.5737 1.41615 20.4975 1.8733L17.8369 17.8369M15.9662 20.6431H11.9128M1.62359 16.9015L1.14555 19.7698C1.06936 20.2269 1.42189 20.6431 1.88535 20.6431H3.80615" stroke="#333343" stroke-width="2" stroke-linecap="round" stroke-linejoin="round"/>
<path d="M20.0194 4.42969H22.4377C22.6809 4.42969 22.9091 4.54767 23.0497 4.74617L28.126 11.9128M28.126 11.9128L26.6774 20.0249C26.6136 20.3826 26.303 20.643 25.9396 20.643C25.5633 20.643 25.0318 20.643 24.3845 20.643M28.126 11.9128H19.084" stroke="#333343" stroke-width="2" stroke-linecap="round"/>
<path d="M7.85938 5.05273L0.999889 5.05273" stroke="#333343" stroke-width="2" stroke-linecap="round"/>
<path d="M7.23633 9.10742H1.62402" stroke="#333343" stroke-width="2" stroke-linecap="round"/>
<path d="M6.6123 13.1603H2.24718" stroke="#333343" stroke-width="2" stroke-linecap="round"/>
<path d="M24.0729 20.6429C24.0729 22.7093 22.3978 24.3844 20.3314 24.3844C18.265 24.3844 16.5898 22.7093 16.5898 20.6429C16.5898 18.5765 18.265 16.9014 20.3314 16.9014C22.3978 16.9014 24.0729 18.5765 24.0729 20.6429Z" stroke="#333343" stroke-width="2"/>
<circle cx="7.8597" cy="20.6429" r="3.74154" stroke="#333343" stroke-width="2"/>
</svg>
