<svg width="688" height="466" viewBox="0 0 688 466" fill="none" xmlns="http://www.w3.org/2000/svg">
<path d="M88 -29H13V46H88V-29Z" stroke="#E1E1F0" stroke-width="0.751834"/>
<path d="M163 -29H88V46H163V-29Z" stroke="#E1E1F0" stroke-width="0.751834"/>
<path d="M238 -29H163V46H238V-29Z" stroke="#E1E1F0" stroke-width="0.751834"/>
<path d="M313 -29H238V46H313V-29Z" stroke="#E1E1F0" stroke-width="0.751834"/>
<path d="M388 -29H313V46H388V-29Z" stroke="#E1E1F0" stroke-width="0.751834"/>
<path d="M463 -29H388V46H463V-29Z" stroke="#E1E1F0" stroke-width="0.751834"/>
<path d="M538 -29H463V46H538V-29Z" stroke="#E1E1F0" stroke-width="0.751834"/>
<path d="M613 -29H538V46H613V-29Z" stroke="#E1E1F0" stroke-width="0.751834"/>
<path d="M688 -29H613V46H688V-29Z" stroke="#E1E1F0" stroke-width="0.751834"/>
<path d="M88 46H13V121H88V46Z" stroke="#E1E1F0" stroke-width="0.751834"/>
<path d="M163 46H88V121H163V46Z" stroke="#E1E1F0" stroke-width="0.751834"/>
<path d="M238 46H163V121H238V46Z" stroke="#E1E1F0" stroke-width="0.751834"/>
<path d="M313 46H238V121H313V46Z" fill="#E4E4F2" stroke="#E1E1F0" stroke-width="0.751834"/>
<path d="M388 46H313V121H388V46Z" stroke="#E1E1F0" stroke-width="0.751834"/>
<path d="M463 46H388V121H463V46Z" stroke="#E1E1F0" stroke-width="0.751834"/>
<path d="M538 46H463V121H538V46Z" stroke="#E1E1F0" stroke-width="0.751834"/>
<path d="M613 46H538V121H613V46Z" stroke="#E1E1F0" stroke-width="0.751834"/>
<path d="M688 46H613V121H688V46Z" stroke="#E1E1F0" stroke-width="0.751834"/>
<path d="M88 121H13V196H88V121Z" stroke="#E1E1F0" stroke-width="0.751834"/>
<path d="M163 121H88V196H163V121Z" stroke="#E1E1F0" stroke-width="0.751834"/>
<path d="M238 121H163V196H238V121Z" stroke="#E1E1F0" stroke-width="0.751834"/>
<path d="M313 121H238V196H313V121Z" stroke="#E1E1F0" stroke-width="0.751834"/>
<path d="M388 121H313V196H388V121Z" stroke="#E1E1F0" stroke-width="0.751834"/>
<path d="M463 121H388V196H463V121Z" stroke="#E1E1F0" stroke-width="0.751834"/>
<path d="M538 121H463V196H538V121Z" stroke="#E1E1F0" stroke-width="0.751834"/>
<path d="M613 121H538V196H613V121Z" stroke="#E1E1F0" stroke-width="0.751834"/>
<path d="M688 121H613V196H688V121Z" stroke="#E1E1F0" stroke-width="0.751834"/>
<path d="M88 196H13V271H88V196Z" stroke="#E1E1F0" stroke-width="0.751834"/>
<path d="M163 196H88V271H163V196Z" stroke="#E1E1F0" stroke-width="0.751834"/>
<path d="M238 196H163V271H238V196Z" stroke="#E1E1F0" stroke-width="0.751834"/>
<path d="M313 196H238V271H313V196Z" stroke="#E1E1F0" stroke-width="0.751834"/>
<path d="M388 196H313V271H388V196Z" stroke="#E1E1F0" stroke-width="0.751834"/>
<path d="M463 196H388V271H463V196Z" fill="#E4E4F2" stroke="#E1E1F0" stroke-width="0.751834"/>
<path d="M538 196H463V271H538V196Z" stroke="#E1E1F0" stroke-width="0.751834"/>
<path d="M613 196H538V271H613V196Z" stroke="#E1E1F0" stroke-width="0.751834"/>
<path d="M688 196H613V271H688V196Z" stroke="#E1E1F0" stroke-width="0.751834"/>
<path d="M88 271H13V346H88V271Z" stroke="#E1E1F0" stroke-width="0.751834"/>
<path d="M163 271H88V346H163V271Z" stroke="#E1E1F0" stroke-width="0.751834"/>
<path d="M238 271H163V346H238V271Z" stroke="#E1E1F0" stroke-width="0.751834"/>
<path d="M313 271H238V346H313V271Z" stroke="#E1E1F0" stroke-width="0.751834"/>
<path d="M388 271H313V346H388V271Z" stroke="#E1E1F0" stroke-width="0.751834"/>
<path d="M463 271H388V346H463V271Z" stroke="#E1E1F0" stroke-width="0.751834"/>
<path d="M538 271H463V346H538V271Z" stroke="#E1E1F0" stroke-width="0.751834"/>
<path d="M613 271H538V346H613V271Z" stroke="#E1E1F0" stroke-width="0.751834"/>
<path d="M688 271H613V346H688V271Z" fill="#E4E4F2" stroke="#E1E1F0" stroke-width="0.751834"/>
<path d="M88 346H13V421H88V346Z" stroke="#E1E1F0" stroke-width="0.751834"/>
<path d="M163 346H88V421H163V346Z" stroke="#E1E1F0" stroke-width="0.751834"/>
<path d="M238 346H163V421H238V346Z" stroke="#E1E1F0" stroke-width="0.751834"/>
<path d="M313 346H238V421H313V346Z" stroke="#E1E1F0" stroke-width="0.751834"/>
<path d="M388 346H313V421H388V346Z" stroke="#E1E1F0" stroke-width="0.751834"/>
<path d="M463 346H388V421H463V346Z" stroke="#E1E1F0" stroke-width="0.751834"/>
<path d="M538 346H463V421H538V346Z" stroke="#E1E1F0" stroke-width="0.751834"/>
<path d="M613 346H538V421H613V346Z" stroke="#E1E1F0" stroke-width="0.751834"/>
<path d="M688 346H613V421H688V346Z" stroke="#E1E1F0" stroke-width="0.751834"/>
<path d="M88 421H13V496H88V421Z" stroke="#E1E1F0" stroke-width="0.751834"/>
<path d="M163 421H88V496H163V421Z" stroke="#E1E1F0" stroke-width="0.751834"/>
<path d="M238 421H163V496H238V421Z" stroke="#E1E1F0" stroke-width="0.751834"/>
<path d="M313 421H238V496H313V421Z" stroke="#E1E1F0" stroke-width="0.751834"/>
<path d="M388 421H313V496H388V421Z" stroke="#E1E1F0" stroke-width="0.751834"/>
<path d="M463 421H388V496H463V421Z" stroke="#E1E1F0" stroke-width="0.751834"/>
<path d="M538 421H463V496H538V421Z" stroke="#E1E1F0" stroke-width="0.751834"/>
<path d="M613 421H538V496H613V421Z" stroke="#E1E1F0" stroke-width="0.751834"/>
<rect width="577" height="525" transform="translate(0 -29)" fill="url(#paint0_linear_2655_644)"/>
<path d="M463 46H388V121H463V46Z" fill="#29B9CE"/>
<path d="M613 121H538V196H613V121Z" fill="#F7E107"/>
<path d="M313 271H238V346H313V271Z" fill="#6064BF"/>
<path d="M538 346H463V421H538V346Z" fill="#FF5D59"/>
<defs>
<linearGradient id="paint0_linear_2655_644" x1="0" y1="262.5" x2="577" y2="262.5" gradientUnits="userSpaceOnUse">
<stop stop-color="#F6F6F8"/>
<stop offset="0.764" stop-color="#F6F6F8" stop-opacity="0"/>
</linearGradient>
</defs>
</svg>
