<svg width="110" height="55" viewBox="0 0 110 55" fill="none" xmlns="http://www.w3.org/2000/svg">
<g clip-path="url(#clip0_6_2759)">
<path d="M77.3686 2.48201C75.7583 0.82512 73.8086 0 71.5129 0H66.3359V6.67415H71.5129C71.992 6.67415 72.3979 6.85382 72.7439 7.21314C73.0833 7.57247 73.2563 7.99168 73.2563 8.47744V10.7731H79.7841V8.47744C79.7841 6.12851 78.9789 4.13225 77.3686 2.48201Z" fill="black"/>
<path d="M73.2565 23.5292C73.2565 24.0083 73.0834 24.4275 72.7441 24.7935C72.3981 25.1528 71.9922 25.3325 71.5131 25.3325H65.5642C65.0585 25.3325 64.626 25.1595 64.2666 24.8135C63.9073 24.4675 63.7277 24.0416 63.7277 23.5292V9.34248H57.1533V23.5292C57.1533 25.8715 57.9718 27.8744 59.6154 29.5246C61.2523 31.1749 63.2352 32.0067 65.5642 32.0067H71.5131C73.8088 32.0067 75.7651 31.1815 77.3754 29.5246C78.9857 27.8744 79.7909 25.8715 79.7909 23.5292V20.242H73.2631V23.5292H73.2565Z" fill="black"/>
<path d="M63.7277 0H57.1533V6.67415H63.7277V0Z" fill="#7679B9"/>
<path d="M100.785 25.2859H94.1172V32H100.785V25.2859Z" fill="#29B9CE"/>
<path d="M84.8477 0V6.67415H94.077V22.6642H100.738V6.67415H109.961V0H84.8477Z" fill="black"/>
<path d="M52.4546 25.2859H45.7871V32H52.4546V25.2859Z" fill="#E4D439"/>
<path d="M45.7874 22.6642H52.4549V8.47744C52.4549 6.13516 51.6364 4.13225 49.9929 2.48201C48.3559 0.825119 46.373 0 44.044 0H38.0486C35.7196 0 33.7367 0.825119 32.0997 2.48201C30.4562 4.13225 29.6377 6.13516 29.6377 8.47744V32.0067H36.3052V22.764L45.7874 20.1489V22.6642ZM36.3052 15.8636V8.47078C36.3052 7.99168 36.4782 7.57912 36.8176 7.2331C37.1569 6.88709 37.5695 6.71408 38.0486 6.71408H44.044C44.5231 6.71408 44.929 6.88709 45.275 7.2331C45.6144 7.57912 45.7874 7.99168 45.7874 8.47078V13.2951L36.3052 15.8636Z" fill="black"/>
<path d="M6.62092 0H0V6.67415H6.62092V0Z" fill="#FF5D59"/>
<path d="M9.22266 0V6.67415H9.22931V32H15.8902V6.67415H25.1129V0H9.22266Z" fill="black"/>
</g>
<path d="M4.01562 50V41.2727H7.21164C7.83096 41.2727 8.34374 41.375 8.74999 41.5795C9.15624 41.7812 9.46022 42.0554 9.66192 42.402C9.86363 42.7457 9.96448 43.1335 9.96448 43.5653C9.96448 43.929 9.89772 44.2358 9.76419 44.4858C9.63067 44.733 9.4517 44.9318 9.22726 45.0824C9.00567 45.2301 8.76135 45.3381 8.49431 45.4062V45.4915C8.78408 45.5057 9.06675 45.5994 9.34232 45.7727C9.62073 45.9432 9.85084 46.1861 10.0327 46.5014C10.2145 46.8168 10.3054 47.2003 10.3054 47.652C10.3054 48.098 10.2003 48.4986 9.99005 48.8537C9.78266 49.206 9.46164 49.4858 9.02698 49.6932C8.59232 49.8977 8.03692 50 7.36079 50H4.01562ZM5.33238 48.8707H7.23294C7.86363 48.8707 8.31533 48.7486 8.58806 48.5043C8.86079 48.2599 8.99715 47.9545 8.99715 47.5881C8.99715 47.3125 8.92755 47.0597 8.78834 46.8295C8.64914 46.5994 8.45027 46.4162 8.19175 46.2798C7.93607 46.1435 7.63209 46.0753 7.27982 46.0753H5.33238V48.8707ZM5.33238 45.0483H7.09658C7.39204 45.0483 7.65766 44.9915 7.89346 44.8778C8.13209 44.7642 8.32101 44.6051 8.46022 44.4006C8.60226 44.1932 8.67329 43.9489 8.67329 43.6676C8.67329 43.3068 8.54687 43.0043 8.29402 42.7599C8.04118 42.5156 7.6534 42.3935 7.13067 42.3935H5.33238V45.0483ZM13.2903 52.4545C13.1 52.4545 12.9267 52.4389 12.7704 52.4077C12.6142 52.3793 12.4977 52.348 12.421 52.3139L12.7278 51.2699C12.9608 51.3324 13.1681 51.3594 13.35 51.3509C13.5318 51.3423 13.6923 51.2741 13.8315 51.1463C13.9735 51.0185 14.0985 50.8097 14.2065 50.5199L14.3642 50.0852L11.9693 43.4545H13.3329L14.9906 48.5341H15.0588L16.7164 43.4545H18.0843L15.3869 50.8736C15.2619 51.2145 15.1028 51.5028 14.9096 51.7386C14.7164 51.9773 14.4863 52.1563 14.2193 52.2756C13.9522 52.3949 13.6426 52.4545 13.2903 52.4545ZM25.3166 41.2727V50H23.9998V41.2727H25.3166ZM29.1261 46.1136V50H27.8519V43.4545H29.0749V44.5199H29.1559C29.3065 44.1733 29.5423 43.8949 29.8633 43.6847C30.1872 43.4744 30.5948 43.3693 31.0863 43.3693C31.5323 43.3693 31.923 43.4631 32.2582 43.6506C32.5934 43.8352 32.8534 44.1108 33.038 44.4773C33.2227 44.8437 33.315 45.2969 33.315 45.8366V50H32.0409V45.9901C32.0409 45.5156 31.9173 45.1449 31.6701 44.8778C31.423 44.608 31.0835 44.473 30.6517 44.473C30.3562 44.473 30.0934 44.5369 29.8633 44.6648C29.636 44.7926 29.4556 44.9801 29.3221 45.2273C29.1914 45.4716 29.1261 45.767 29.1261 46.1136ZM38.7992 43.4545V44.4773H35.2239V43.4545H38.7992ZM36.1827 41.8864H37.4569V48.0781C37.4569 48.3253 37.4938 48.5114 37.5677 48.6364C37.6415 48.7585 37.7367 48.8423 37.8532 48.8878C37.9725 48.9304 38.1018 48.9517 38.241 48.9517C38.3432 48.9517 38.4327 48.9446 38.5094 48.9304C38.5861 48.9162 38.6458 48.9048 38.6884 48.8963L38.9185 49.9489C38.8447 49.9773 38.7395 50.0057 38.6032 50.0341C38.4668 50.0653 38.2964 50.0824 38.0918 50.0852C37.7566 50.0909 37.4441 50.0312 37.1543 49.9062C36.8645 49.7812 36.6302 49.5881 36.4512 49.3267C36.2722 49.0653 36.1827 48.7372 36.1827 48.3423V41.8864ZM43.6794 50.1321C43.0345 50.1321 42.4791 49.9943 42.0132 49.7188C41.5501 49.4403 41.1921 49.0497 40.9393 48.5469C40.6893 48.0412 40.5643 47.4489 40.5643 46.7699C40.5643 46.0994 40.6893 45.5085 40.9393 44.9972C41.1921 44.4858 41.5444 44.0866 41.9961 43.7997C42.4507 43.5128 42.9819 43.3693 43.5899 43.3693C43.9592 43.3693 44.3171 43.4304 44.6637 43.5526C45.0103 43.6747 45.3214 43.8665 45.597 44.1278C45.8725 44.3892 46.0899 44.7287 46.249 45.1463C46.4081 45.5611 46.4876 46.0653 46.4876 46.6591V47.1108H41.2845V46.1562H45.239C45.239 45.821 45.1708 45.5241 45.0345 45.2656C44.8981 45.0043 44.7064 44.7983 44.4592 44.6477C44.2149 44.4972 43.9279 44.4219 43.5984 44.4219C43.2404 44.4219 42.9279 44.5099 42.6609 44.6861C42.3967 44.8594 42.1921 45.0866 42.0473 45.3679C41.9052 45.6463 41.8342 45.9489 41.8342 46.2756V47.0213C41.8342 47.4588 41.9109 47.831 42.0643 48.1378C42.2206 48.4446 42.4379 48.679 42.7163 48.8409C42.9947 49 43.32 49.0795 43.6921 49.0795C43.9336 49.0795 44.1538 49.0455 44.3527 48.9773C44.5515 48.9062 44.7234 48.8011 44.8683 48.6619C45.0132 48.5227 45.124 48.3509 45.2007 48.1463L46.4066 48.3636C46.31 48.7187 46.1368 49.0298 45.8868 49.2969C45.6396 49.5611 45.3285 49.767 44.9535 49.9148C44.5814 50.0597 44.1566 50.1321 43.6794 50.1321ZM48.6213 50V43.4545H49.8528V44.4943H49.921C50.0403 44.142 50.2506 43.8651 50.5517 43.6634C50.8557 43.4588 51.1994 43.3565 51.583 43.3565C51.6625 43.3565 51.7563 43.3594 51.8642 43.3651C51.975 43.3707 52.0617 43.3778 52.1242 43.3864V44.6051C52.073 44.5909 51.9821 44.5753 51.8514 44.5582C51.7207 44.5384 51.5901 44.5284 51.4594 44.5284C51.1582 44.5284 50.8898 44.5923 50.654 44.7202C50.421 44.8452 50.2364 45.0199 50.1 45.2443C49.9636 45.4659 49.8955 45.7187 49.8955 46.0028V50H48.6213ZM55.793 50.1449C55.3782 50.1449 55.0032 50.0682 54.668 49.9148C54.3328 49.7585 54.0672 49.5327 53.8711 49.2372C53.678 48.9418 53.5814 48.5795 53.5814 48.1506C53.5814 47.7812 53.6524 47.4773 53.7944 47.2386C53.9365 47 54.1282 46.8111 54.3697 46.6719C54.6112 46.5327 54.8811 46.4276 55.1794 46.3565C55.4777 46.2855 55.7817 46.2315 56.0913 46.1946C56.4834 46.1491 56.8015 46.1122 57.0459 46.0838C57.2902 46.0526 57.4677 46.0028 57.5785 45.9347C57.6893 45.8665 57.7447 45.7557 57.7447 45.6023V45.5724C57.7447 45.2003 57.6396 44.9119 57.4294 44.7074C57.222 44.5028 56.9123 44.4006 56.5004 44.4006C56.0714 44.4006 55.7334 44.4957 55.4862 44.6861C55.2419 44.8736 55.0728 45.0824 54.9791 45.3125L53.7817 45.0398C53.9237 44.642 54.1311 44.321 54.4038 44.0767C54.6794 43.8295 54.9961 43.6506 55.3541 43.5398C55.7121 43.4261 56.0885 43.3693 56.4834 43.3693C56.7447 43.3693 57.0217 43.4006 57.3143 43.4631C57.6098 43.5227 57.8853 43.6335 58.141 43.7955C58.3996 43.9574 58.6112 44.1889 58.776 44.4901C58.9407 44.7884 59.0231 45.1761 59.0231 45.6534V50H57.7788V49.1051H57.7277C57.6453 49.2699 57.5217 49.4318 57.3569 49.5909C57.1922 49.75 56.9805 49.8821 56.722 49.9872C56.4635 50.0923 56.1538 50.1449 55.793 50.1449ZM56.07 49.1222C56.4223 49.1222 56.7234 49.0526 56.9734 48.9134C57.2263 48.7741 57.418 48.5923 57.5487 48.3679C57.6822 48.1406 57.749 47.8977 57.749 47.6392V46.7955C57.7035 46.8409 57.6155 46.8835 57.4848 46.9233C57.3569 46.9602 57.2106 46.9929 57.0459 47.0213C56.8811 47.0469 56.7206 47.071 56.5643 47.0938C56.4081 47.1136 56.2774 47.1307 56.1723 47.1449C55.9251 47.1761 55.6993 47.2287 55.4947 47.3026C55.293 47.3764 55.1311 47.483 55.0089 47.6222C54.8896 47.7585 54.8299 47.9403 54.8299 48.1676C54.8299 48.483 54.9464 48.7216 55.1794 48.8835C55.4123 49.0426 55.7092 49.1222 56.07 49.1222ZM64.1973 50.1321C63.5638 50.1321 63.0183 49.9886 62.561 49.7017C62.1064 49.4119 61.757 49.0128 61.5127 48.5043C61.2683 47.9957 61.1462 47.4134 61.1462 46.7571C61.1462 46.0923 61.2712 45.5057 61.5212 44.9972C61.7712 44.4858 62.1235 44.0866 62.578 43.7997C63.0325 43.5128 63.5681 43.3693 64.1845 43.3693C64.6817 43.3693 65.1249 43.4616 65.5141 43.6463C65.9033 43.8281 66.2172 44.0838 66.4558 44.4134C66.6973 44.7429 66.8408 45.1278 66.8862 45.5682H65.6462C65.578 45.2614 65.4218 44.9972 65.1774 44.7756C64.936 44.554 64.6121 44.4432 64.2058 44.4432C63.8507 44.4432 63.5396 44.5369 63.2726 44.7244C63.0084 44.9091 62.8024 45.1733 62.6547 45.517C62.507 45.858 62.4331 46.2614 62.4331 46.7273C62.4331 47.2045 62.5056 47.6165 62.6504 47.9631C62.7953 48.3097 62.9999 48.5781 63.2641 48.7685C63.5311 48.9588 63.845 49.054 64.2058 49.054C64.4473 49.054 64.6661 49.0099 64.8621 48.9219C65.061 48.831 65.2271 48.7017 65.3607 48.5341C65.497 48.3665 65.5922 48.1648 65.6462 47.929H66.8862C66.8408 48.3523 66.703 48.7301 66.4729 49.0625C66.2428 49.3949 65.9345 49.6562 65.5482 49.8466C65.1646 50.0369 64.7144 50.1321 64.1973 50.1321ZM72.0242 43.4545V44.4773H68.4489V43.4545H72.0242ZM69.4077 41.8864H70.6819V48.0781C70.6819 48.3253 70.7188 48.5114 70.7927 48.6364C70.8665 48.7585 70.9617 48.8423 71.0782 48.8878C71.1975 48.9304 71.3268 48.9517 71.466 48.9517C71.5682 48.9517 71.6577 48.9446 71.7344 48.9304C71.8111 48.9162 71.8708 48.9048 71.9134 48.8963L72.1435 49.9489C72.0697 49.9773 71.9645 50.0057 71.8282 50.0341C71.6918 50.0653 71.5214 50.0824 71.3168 50.0852C70.9816 50.0909 70.6691 50.0312 70.3793 49.9062C70.0895 49.7812 69.8552 49.5881 69.6762 49.3267C69.4972 49.0653 69.4077 48.7372 69.4077 48.3423V41.8864ZM78.1517 50V41.2727H79.4685V48.8665H83.423V50H78.1517ZM87.4477 50.1449C87.0329 50.1449 86.6579 50.0682 86.3227 49.9148C85.9875 49.7585 85.7219 49.5327 85.5258 49.2372C85.3326 48.9418 85.2361 48.5795 85.2361 48.1506C85.2361 47.7812 85.3071 47.4773 85.4491 47.2386C85.5912 47 85.7829 46.8111 86.0244 46.6719C86.2659 46.5327 86.5358 46.4276 86.8341 46.3565C87.1324 46.2855 87.4363 46.2315 87.746 46.1946C88.138 46.1491 88.4562 46.1122 88.7005 46.0838C88.9449 46.0526 89.1224 46.0028 89.2332 45.9347C89.344 45.8665 89.3994 45.7557 89.3994 45.6023V45.5724C89.3994 45.2003 89.2943 44.9119 89.0841 44.7074C88.8767 44.5028 88.567 44.4006 88.1551 44.4006C87.7261 44.4006 87.388 44.4957 87.1409 44.6861C86.8966 44.8736 86.7275 45.0824 86.6338 45.3125L85.4363 45.0398C85.5784 44.642 85.7858 44.321 86.0585 44.0767C86.3341 43.8295 86.6508 43.6506 87.0088 43.5398C87.3667 43.4261 87.7432 43.3693 88.138 43.3693C88.3994 43.3693 88.6764 43.4006 88.969 43.4631C89.2645 43.5227 89.54 43.6335 89.7957 43.7955C90.0542 43.9574 90.2659 44.1889 90.4307 44.4901C90.5954 44.7884 90.6778 45.1761 90.6778 45.6534V50H89.4335V49.1051H89.3824C89.3 49.2699 89.1764 49.4318 89.0116 49.5909C88.8469 49.75 88.6352 49.8821 88.3767 49.9872C88.1182 50.0923 87.8085 50.1449 87.4477 50.1449ZM87.7247 49.1222C88.077 49.1222 88.3781 49.0526 88.6281 48.9134C88.8809 48.7741 89.0727 48.5923 89.2034 48.3679C89.3369 48.1406 89.4037 47.8977 89.4037 47.6392V46.7955C89.3582 46.8409 89.2701 46.8835 89.1395 46.9233C89.0116 46.9602 88.8653 46.9929 88.7005 47.0213C88.5358 47.0469 88.3753 47.071 88.219 47.0938C88.0628 47.1136 87.9321 47.1307 87.827 47.1449C87.5798 47.1761 87.354 47.2287 87.1494 47.3026C86.9477 47.3764 86.7858 47.483 86.6636 47.6222C86.5443 47.7585 86.4846 47.9403 86.4846 48.1676C86.4846 48.483 86.6011 48.7216 86.8341 48.8835C87.067 49.0426 87.3639 49.1222 87.7247 49.1222ZM93.1972 50V41.2727H94.4713V44.5156H94.548C94.6219 44.3793 94.7284 44.2216 94.8676 44.0426C95.0068 43.8636 95.2 43.7074 95.4472 43.5739C95.6943 43.4375 96.021 43.3693 96.4273 43.3693C96.9557 43.3693 97.4273 43.5028 97.8421 43.7699C98.2568 44.0369 98.5821 44.4219 98.8179 44.9247C99.0566 45.4276 99.1759 46.0327 99.1759 46.7401C99.1759 47.4474 99.058 48.054 98.8222 48.5597C98.5864 49.0625 98.2625 49.4503 97.8506 49.723C97.4387 49.9929 96.9685 50.1278 96.4401 50.1278C96.0424 50.1278 95.7171 50.0611 95.4642 49.9276C95.2142 49.794 95.0182 49.6378 94.8762 49.4588C94.7341 49.2798 94.6247 49.1207 94.548 48.9815H94.4415V50H93.1972ZM94.4458 46.7273C94.4458 47.1875 94.5125 47.5909 94.646 47.9375C94.7796 48.2841 94.9727 48.5554 95.2256 48.7514C95.4784 48.9446 95.7881 49.0412 96.1546 49.0412C96.5352 49.0412 96.8534 48.9403 97.1091 48.7386C97.3648 48.5341 97.558 48.2571 97.6887 47.9077C97.8222 47.5582 97.8889 47.1648 97.8889 46.7273C97.8889 46.2955 97.8236 45.9077 97.6929 45.5639C97.5651 45.2202 97.3719 44.9489 97.1134 44.75C96.8577 44.5511 96.5381 44.4517 96.1546 44.4517C95.7852 44.4517 95.4727 44.5469 95.2171 44.7372C94.9642 44.9276 94.7725 45.1932 94.6418 45.5341C94.5111 45.875 94.4458 46.2727 94.4458 46.7273ZM106.231 45.0526L105.077 45.2571C105.028 45.1094 104.952 44.9687 104.847 44.8352C104.744 44.7017 104.605 44.5923 104.429 44.5071C104.253 44.4219 104.033 44.3793 103.768 44.3793C103.408 44.3793 103.106 44.4602 102.865 44.6222C102.624 44.7812 102.503 44.9872 102.503 45.2401C102.503 45.4588 102.584 45.6349 102.746 45.7685C102.908 45.902 103.169 46.0114 103.53 46.0966L104.57 46.3352C105.172 46.4744 105.621 46.6889 105.916 46.9787C106.212 47.2685 106.359 47.6449 106.359 48.108C106.359 48.5 106.246 48.8494 106.018 49.1562C105.794 49.4602 105.48 49.6989 105.077 49.8722C104.676 50.0455 104.212 50.1321 103.683 50.1321C102.95 50.1321 102.352 49.9759 101.889 49.6634C101.426 49.348 101.142 48.9006 101.037 48.321L102.268 48.1335C102.345 48.4545 102.503 48.6974 102.741 48.8622C102.98 49.0241 103.291 49.1051 103.675 49.1051C104.092 49.1051 104.426 49.0185 104.676 48.8452C104.926 48.669 105.051 48.4545 105.051 48.2017C105.051 47.9972 104.974 47.8253 104.821 47.6861C104.67 47.5469 104.439 47.4418 104.126 47.3707L103.018 47.1278C102.408 46.9886 101.956 46.767 101.663 46.4631C101.374 46.1591 101.229 45.7741 101.229 45.3082C101.229 44.9219 101.337 44.5838 101.552 44.294C101.768 44.0043 102.067 43.7784 102.447 43.6165C102.828 43.4517 103.264 43.3693 103.756 43.3693C104.463 43.3693 105.02 43.5227 105.426 43.8295C105.832 44.1335 106.101 44.5412 106.231 45.0526Z" fill="#8D8DA5"/>
<defs>
<clipPath id="clip0_6_2759">
<rect width="109.96" height="32" fill="white"/>
</clipPath>
</defs>
</svg>
