<svg width="28" height="28" viewBox="0 0 28 28" fill="none" xmlns="http://www.w3.org/2000/svg">
<path fill-rule="evenodd" clip-rule="evenodd" d="M4.66667 0C2.08934 0 0 2.08934 0 4.66667V23.3333C0 25.9107 2.08934 28 4.66667 28H23.3333C25.9107 28 28 25.9107 28 23.3333V4.66667C28 2.08934 25.9107 0 23.3333 0H4.66667ZM18.2486 14.6044C18.2665 14.7422 18.6689 16.5991 21.1937 17.8018C21.3416 17.8723 21.5932 18.0215 21.1504 18.2597C20.7688 18.4671 20.4573 18.5487 20.1943 18.6177C19.977 18.6746 19.793 18.7229 19.6299 18.8262C19.4646 18.931 19.4414 19.1015 19.4199 19.2597C19.4016 19.3941 19.3845 19.5198 19.2825 19.5891C19.1639 19.6695 18.9447 19.6778 18.6495 19.6889C18.2637 19.7034 17.7481 19.7229 17.158 19.9149C16.8694 20.009 16.6161 20.1622 16.3481 20.3242C15.818 20.6448 15.2307 21 14.2003 21C13.174 21 12.594 20.6492 12.0656 20.3296C11.7954 20.1662 11.5387 20.0109 11.2427 19.9149C10.6515 19.7229 10.1359 19.7034 9.75042 19.6889C9.45547 19.6778 9.23661 19.6695 9.11817 19.5891C9.01595 19.5197 8.99888 19.394 8.98061 19.2595C8.95913 19.1013 8.93601 18.931 8.77075 18.8262C8.60775 18.7229 8.4236 18.6746 8.20633 18.6177C7.94329 18.5488 7.6317 18.4671 7.25026 18.2597C6.80661 18.0187 7.05822 17.8694 7.20611 17.7989C9.73053 16.5983 10.1334 14.7413 10.1513 14.6016C10.152 14.5962 10.1527 14.5909 10.1534 14.5856C10.1743 14.4262 10.1911 14.2981 10.0105 14.1338C9.8878 14.022 9.47845 13.7611 9.15924 13.5575C9.00907 13.4618 8.87886 13.3788 8.80782 13.33C8.43957 13.0775 8.27878 12.8254 8.39792 12.5155C8.48123 12.3023 8.68327 12.2203 8.8978 12.2203C8.96521 12.2205 9.0324 12.228 9.09817 12.2425C9.3361 12.2933 9.56997 12.3833 9.76821 12.4596C9.90593 12.5126 10.0265 12.559 10.1192 12.5811C10.1464 12.5879 10.1744 12.5917 10.2025 12.5921C10.3233 12.5921 10.3658 12.5323 10.3575 12.3962C10.3554 12.3612 10.3531 12.3235 10.3506 12.2834C10.3224 11.826 10.2748 11.0522 10.3387 10.3253C10.4333 9.23734 10.7895 8.6983 11.2135 8.22156C11.4168 7.99324 12.3653 7 14.1983 7C16.0312 7 16.9809 7.99324 17.1855 8.22443C17.6083 8.70117 17.9649 9.24021 18.0603 10.3281C18.1274 11.0913 18.0739 11.9065 18.0446 12.3523C18.0435 12.3683 18.0425 12.3839 18.0415 12.3991C18.0299 12.5421 18.0757 12.595 18.1965 12.595C18.2246 12.5946 18.2526 12.5908 18.2798 12.5839C18.3728 12.5619 18.4937 12.5154 18.6317 12.4623C18.8299 12.386 19.0635 12.2961 19.3012 12.2453C19.367 12.2308 19.4342 12.2234 19.5016 12.2232C19.7153 12.2232 19.9182 12.304 20.0015 12.5183C20.1206 12.8282 19.959 13.0803 19.592 13.3329C19.5209 13.3817 19.3905 13.4649 19.2401 13.5608C18.9209 13.7644 18.512 14.0253 18.3894 14.1367C18.2087 14.3007 18.2255 14.4287 18.2464 14.5876C18.2471 14.5932 18.2478 14.5988 18.2486 14.6044Z" fill="#A8A8BE"/>
</svg>
