<svg width="220" height="168" viewBox="0 0 220 168" fill="none" xmlns="http://www.w3.org/2000/svg">
<path d="M114.814 61.1946C112.287 62.7192 109.428 63.6083 106.482 63.7856C107.17 65.735 107.681 67.7426 108.009 69.7838L113.069 72.0086L116.145 67.5372C115.868 65.3914 115.423 63.2706 114.814 61.1946Z" fill="#FFBEBD"/>
<path d="M147.292 22.7837C134.598 38.619 124.15 44.5955 117.17 46.9729C119.046 51.946 120.507 55.654 121.188 60.1254C121.21 60.1691 145.525 50.6809 156.786 30.9665C154.457 27.3979 151.165 24.5611 147.292 22.7837Z" fill="#FFBEBD"/>
<path d="M111.542 48.3693C110.363 48.5615 109.154 48.4179 108.052 47.9548C106.46 49.8088 103.734 50.4414 100.527 50.5504C100.047 51.2241 99.4301 51.789 98.7168 52.2081C100.276 54.6781 101.694 57.2342 102.964 59.8641C108.003 59.5587 111.82 58.6426 114.459 56.2869C113.769 53.5521 112.791 50.8981 111.542 48.3693Z" fill="#FFBEBD"/>
<path d="M57.4495 75.6988C70.1439 75.2189 86.4373 73.1732 98.7392 68.8499C97.0386 64.0882 94.8839 59.5011 92.3047 55.1521C82.8728 58.7051 75.396 58.6936 56.1626 60.0161C60.6914 59.767 61.6695 75.111 57.4495 75.6988Z" fill="#FFBEBD"/>
<path d="M158.81 18.8989L162.191 21.9526C162.512 22.2386 162.934 22.3855 163.363 22.361C163.793 22.3364 164.195 22.1425 164.481 21.8217L174.864 10.289C175.15 9.96663 175.298 9.54418 175.275 9.11349C175.249 8.68315 175.054 8.28041 174.733 7.99306L166.968 0.990332C166.646 0.703499 166.223 0.555757 165.792 0.579352C165.579 0.59146 165.37 0.645559 165.178 0.738544C164.986 0.831529 164.814 0.96157 164.672 1.1212L154.288 12.6608C154.146 12.8198 154.036 13.0056 153.965 13.2074C153.895 13.4092 153.865 13.6229 153.877 13.8363C153.889 14.0497 153.943 14.2586 154.036 14.451C154.129 14.6433 154.259 14.8153 154.419 14.9567L155.223 15.6765C156.434 13.8834 159.13 10.1145 160.002 9.89298C160.615 10.7517 159.954 13.0867 159.361 15.176C158.864 16.9267 158.418 18.5052 158.81 18.8989Z" fill="#FFBEBD"/>
<path d="M157.59 148.312C153.627 149.405 149.577 150.157 145.485 150.559C149.936 156.775 149.127 158.171 150.698 161.138C157.919 164.104 173.863 166.787 181.606 166.939C175.843 159.785 164.593 156.034 157.59 148.312Z" fill="#6064BF"/>
<path d="M50.4479 116.618C45.6058 116.793 40.7599 116.405 36.0073 115.462C31.4716 125.277 28.2435 137.514 26.6064 145.433C37.9061 140.127 38.1896 128.532 49.7063 127.371C49.3972 123.77 49.6473 120.143 50.4479 116.618Z" fill="#6064BF"/>
<path d="M58.4305 61.6305C56.996 61.8165 55.5556 61.9547 54.1118 62.0449C55.1588 59.5377 56.991 59.3185 58.4305 61.6305Z" fill="#6064BF"/>
<path d="M59.4119 73.6488C58.2558 76.5062 56.2055 76.3535 54.7441 73.5398C56.6418 73.5432 58.3213 73.5834 59.4119 73.6488Z" fill="#6064BF"/>
<path d="M173.837 91.3371C173.505 90.6129 172.965 90.0035 172.286 89.5859C171.608 89.1683 170.82 88.9612 170.024 88.9908C169.228 89.0204 168.458 89.2854 167.812 89.7522C167.166 90.2191 166.673 90.8668 166.395 91.6137C166.188 92.1725 166.108 92.7702 166.159 93.3639C166.211 93.9575 166.394 94.5323 166.694 95.0469C166.994 95.5615 167.405 96.0031 167.897 96.34C168.388 96.6768 168.948 96.9005 169.537 96.9949C170.125 97.0894 170.727 97.0522 171.299 96.8861C171.872 96.7201 172.4 96.4292 172.846 96.0345C173.293 95.6398 173.646 95.151 173.881 94.6034C174.116 94.0557 174.227 93.4628 174.205 92.8673C174.185 92.3379 174.06 91.8177 173.837 91.3371Z" fill="#6064BF"/>
<path d="M113.592 91.884C112.458 94.8941 111.296 97.7732 110.034 100.565C110.792 102.929 111.635 105.264 112.559 107.568C111.76 100.74 113.614 91.9116 113.592 91.884Z" fill="#6064BF"/>
<path d="M104.89 13.3818C101.409 13.3855 98.0711 14.7701 95.6094 17.2318C93.1477 19.6934 91.7631 23.0312 91.7595 26.5125C91.7338 28.4835 92.078 30.4417 92.7743 32.2857C91.0648 29.2529 88.3546 26.9083 85.1073 25.6531C81.8601 24.3979 78.2775 24.31 74.9726 25.4045C71.6677 26.4991 68.8459 28.708 66.9898 31.6534C65.1337 34.5988 64.3587 38.0976 64.7975 41.5512C65.2363 45.0049 66.8615 48.1988 69.3951 50.5865C71.9287 52.9742 75.2133 54.4074 78.6869 54.6407C82.1605 54.8741 85.6072 53.8932 88.4375 51.8659C91.2677 49.8386 93.3056 46.8908 94.2024 43.5268C96.1 44.5738 98.652 44.7047 100.287 45.8607C100.019 45.3257 98.9516 43.3868 98.3236 43.3087C94.0761 43.047 94.223 39.1863 96.6878 39.8843C97.8656 40.2115 98.1492 39.9497 97.9506 39.3608C96.4892 36.1969 97.667 28.4354 103.927 34.9537C105.285 36.2575 106.439 37.7578 107.351 39.4044C110.563 38.7934 113.43 37.006 115.393 34.3921C117.356 31.7781 118.272 28.5257 117.963 25.2715C117.655 22.0174 116.144 18.9953 113.726 16.7964C111.307 14.5974 108.155 13.3799 104.887 13.3818H104.89Z" fill="#6064BF"/>
<path d="M105.435 44.9451C104.672 45.1632 103.891 45.317 103.101 45.4043L106.787 47.1928C106.066 46.6436 105.582 45.8394 105.435 44.9451Z" fill="#6064BF"/>
<path d="M212.772 56.4614C213.032 57.0532 213.476 57.5456 214.037 57.866C214.599 58.1863 215.248 58.3177 215.89 58.2405C216.532 58.1634 217.132 57.8819 217.601 57.4376C218.071 56.9934 218.385 56.4099 218.498 55.7733C218.61 55.1367 218.515 54.4808 218.227 53.9024C217.938 53.3241 217.471 52.8539 216.894 52.5614C216.318 52.2688 215.663 52.1694 215.025 52.2778C214.388 52.3862 213.802 52.6966 213.355 53.1633C212.941 53.5928 212.664 54.136 212.56 54.7234C212.457 55.3109 212.53 55.916 212.772 56.4614Z" fill="#6064BF"/>
<path d="M195.999 63.8557C196.237 64.4022 196.633 64.8653 197.135 65.1862C197.638 65.5072 198.224 65.6714 198.82 65.6581C199.266 65.6493 199.704 65.5416 200.103 65.3429C200.502 65.1442 200.852 64.8594 201.128 64.509C201.403 64.1587 201.598 63.7515 201.697 63.3169C201.796 62.8823 201.797 62.4312 201.701 61.996C201.605 61.5608 201.414 61.1523 201.141 60.7999C200.868 60.4476 200.52 60.1601 200.123 59.9583C199.726 59.7564 199.289 59.6453 198.843 59.6328C198.398 59.6203 197.955 59.7068 197.547 59.886C197.184 60.0443 196.856 60.2727 196.582 60.5581C196.307 60.8435 196.092 61.1803 195.948 61.5492C195.804 61.918 195.735 62.3116 195.743 62.7075C195.752 63.1033 195.839 63.4935 195.999 63.8557Z" fill="#6064BF"/>
<path d="M58.125 137.515L63.2071 148.595C64.2174 150.795 66.06 152.505 68.3299 153.347C70.5998 154.19 73.1114 154.097 75.3127 153.088L123.866 130.839" stroke="#292B59" stroke-width="1.15376" stroke-linecap="round" stroke-linejoin="round"/>
<path d="M146.005 120.697L187.776 101.568C189.976 100.557 191.684 98.7143 192.527 96.4445C193.369 94.1748 193.277 91.6635 192.269 89.4621L162.888 25.3137" stroke="#292B59" stroke-width="1.15376" stroke-linecap="round" stroke-linejoin="round"/>
<path d="M153.901 13.7753C151.871 13.2495 149.721 13.4422 147.816 14.3206L117.981 27.9805" stroke="#292B59" stroke-width="1.15376" stroke-linecap="round" stroke-linejoin="round"/>
<path d="M46.9141 60.5183L69.1804 50.323" stroke="#292B59" stroke-width="1.15376" stroke-linecap="round" stroke-linejoin="round"/>
<path d="M37.6655 64.7493L35.3317 65.818C33.1317 66.8288 31.4228 68.6714 30.5801 70.941C29.7375 73.2107 29.83 75.722 30.8373 77.9236L48.5932 116.661" stroke="#292B59" stroke-width="1.15376" stroke-linecap="round" stroke-linejoin="round"/>
<path d="M131.587 96.5026L143.976 90.8316C144.458 90.6075 144.831 90.2019 145.015 89.7034C145.199 89.2049 145.178 88.6538 144.958 88.1706L143.758 85.5095C143.534 85.0277 143.128 84.6542 142.63 84.4703C142.131 84.2864 141.58 84.3072 141.097 84.528L128.424 90.3299" stroke="#292B59" stroke-width="1.15376" stroke-linecap="round" stroke-linejoin="round"/>
<path d="M111.782 105.581L106.308 108.09" stroke="#292B59" stroke-width="1.15376" stroke-linecap="round" stroke-linejoin="round"/>
<path d="M105.413 44.9663C105.562 45.6507 105.886 46.2849 106.352 46.8078C106.818 47.3307 107.411 47.7244 108.074 47.951C109.175 48.416 110.385 48.5595 111.564 48.3655C125.829 46.1544 138.256 34.0351 147.292 22.7803C151.163 24.5573 154.452 27.3929 156.781 30.9597C145.525 50.6775 121.205 60.1656 121.183 60.1186" stroke="#292B59" stroke-width="1.15376" stroke-linecap="round" stroke-linejoin="round"/>
<path d="M103.08 45.4024C103.08 45.4024 113.591 44.9249 104.127 35.1509C97.629 28.4398 96.473 35.9924 97.8862 39.2366C98.2823 40.1447 97.5487 40.1068 96.667 39.8623C94.1989 39.1735 94.0496 43.025 98.3029 43.2867C98.6439 43.4669 98.9423 43.7206 99.1754 44.0283C102.073 48.254 101.99 50.7475 97.2123 53.0147C84.8898 58.8626 78.018 58.4677 56.1626 60.0175" stroke="#292B59" stroke-width="1.15376" stroke-linecap="round" stroke-linejoin="round"/>
<path d="M103.101 45.4026L106.765 47.1912" stroke="#292B59" stroke-width="1.15376" stroke-linecap="round" stroke-linejoin="round"/>
<path d="M57.4272 75.6992C70.1217 75.2194 86.4151 73.1737 98.7169 68.8503" stroke="#292B59" stroke-width="1.15376" stroke-linecap="round" stroke-linejoin="round"/>
<path d="M58.4309 61.6303C53.3224 62.2915 48.1553 62.357 43.0318 61.8266C41.4606 61.6071 39.9077 61.2718 38.3859 60.8233C36.6344 60.3438 34.9151 59.7537 33.2383 59.0565C28.6142 57.1554 27.48 58.0096 31.8194 61.3249C36.6643 64.5365 41.9267 67.0684 47.4596 68.85" stroke="#292B59" stroke-width="1.15376" stroke-linecap="round" stroke-linejoin="round"/>
<path d="M59.4118 73.6487C56.0356 73.4467 44.682 73.4191 41.3299 73.736C35.4395 74.3031 37.4267 72.9944 39.2635 71.882C40.5928 71.0784 46.854 69.5045 44.5637 67.864" stroke="#292B59" stroke-width="1.15376" stroke-linecap="round" stroke-linejoin="round"/>
<path d="M37.6256 60.5834C36.6222 59.8418 34.6603 58.1175 34.092 57.617C31.4804 55.321 32.3035 54.7573 32.8052 54.9766C34.8153 55.8617 37.9091 57.6594 39.8079 58.4447C42.8615 59.7074 48.6635 62.2399 51.5426 62.1745" stroke="#292B59" stroke-width="1.15376" stroke-linecap="round" stroke-linejoin="round"/>
<path d="M39.6066 58.3802C39.2358 57.921 38.9098 57.5502 38.7341 57.3332C36.5472 54.6366 37.4254 54.2141 37.8835 54.5195C39.7202 55.741 42.4892 58.0025 44.2307 59.0781C46.3264 60.3118 48.5314 61.3494 50.8178 62.1777" stroke="#292B59" stroke-width="1.15376" stroke-linecap="round" stroke-linejoin="round"/>
<path d="M54.1123 62.0451C55.8021 57.995 59.2231 60.3105 60.0348 66.6623C60.9876 74.1242 57.4128 78.6783 54.7448 73.5399" stroke="#292B59" stroke-width="1.15376" stroke-linecap="round" stroke-linejoin="round"/>
<path d="M158.81 18.8989C158.006 17.8301 159.9 13.6859 160.097 12.4208C160.424 10.305 160.693 7.93215 157.348 12.8352C154.671 16.5696 151.78 20.1454 148.688 23.5448" stroke="#292B59" stroke-width="1.15376" stroke-linecap="round" stroke-linejoin="round"/>
<path d="M158.81 18.8989L162.191 21.9526C162.512 22.2386 162.934 22.3855 163.363 22.361C163.792 22.3364 164.194 22.1425 164.481 21.8217L174.863 10.289C175.15 9.96667 175.298 9.54417 175.274 9.11347C175.249 8.68309 175.054 8.28031 174.733 7.99303L166.968 0.990308C166.645 0.703584 166.223 0.555859 165.792 0.579328C165.579 0.591311 165.37 0.645355 165.178 0.738349C164.985 0.831342 164.813 0.961448 164.672 1.12118L154.288 12.6607C154.073 12.9002 153.934 13.1985 153.889 13.5173C153.844 13.8361 153.896 14.161 154.037 14.4505C154.13 14.6422 154.259 14.8144 154.419 14.9567L155.222 15.6765" stroke="#292B59" stroke-width="1.15376" stroke-linecap="round" stroke-linejoin="round"/>
<path d="M156.278 30.2216C159.682 26.5791 176.024 17.7396 173.86 17.4181C171.325 17.0405 166.763 19.5591 166.269 19.8358" stroke="#292B59" stroke-width="1.15376" stroke-linecap="round" stroke-linejoin="round"/>
<path d="M169.963 18.1262C170.478 17.791 172.59 16.426 174.34 15.4766C176.089 14.5272 172.289 14.4951 170.021 15.6729" stroke="#292B59" stroke-width="1.15376" stroke-linecap="round" stroke-linejoin="round"/>
<path d="M161.529 21.358C161.224 21.1881 159.488 20.3639 156.082 21.3879" stroke="#292B59" stroke-width="1.15376" stroke-linecap="round" stroke-linejoin="round"/>
<path d="M179.094 88.9386C179.426 89.6635 179.535 90.4703 179.409 91.2573C179.282 92.0442 178.926 92.7762 178.384 93.3606C177.702 94.0914 176.774 94.5429 175.778 94.6278C174.782 94.7127 173.791 94.4248 172.995 93.82C172.2 93.2151 171.657 92.3365 171.473 91.3544C171.289 90.3723 171.476 89.3567 171.998 88.5047C172.416 87.8257 173.026 87.286 173.751 86.9537C174.475 86.6174 175.283 86.505 176.071 86.631C176.859 86.757 177.592 87.1156 178.175 87.6609C178.563 88.0225 178.875 88.4564 179.094 88.9386Z" stroke="#292B59" stroke-width="1.15376" stroke-linecap="round" stroke-linejoin="round"/>
<path d="M173.838 91.3367C174.169 92.0616 174.279 92.8684 174.152 93.6554C174.026 94.4424 173.669 95.1743 173.127 95.7588C172.585 96.343 171.881 96.7529 171.106 96.9366C170.33 97.1221 169.517 97.0729 168.769 96.7954C168.022 96.5178 167.374 96.0243 166.907 95.3776C166.558 94.8949 166.319 94.3406 166.21 93.7546C166.1 93.1686 166.122 92.5656 166.274 91.9891C166.426 91.4126 166.703 90.877 167.087 90.4209C167.471 89.9648 167.952 89.5997 168.494 89.3518C169.467 88.9153 170.573 88.8788 171.572 89.2501C172.572 89.6215 173.386 90.3709 173.838 91.3367Z" stroke="#292B59" stroke-width="1.15376" stroke-linecap="round" stroke-linejoin="round"/>
<path d="M168.581 93.7589C168.913 94.4838 169.022 95.2906 168.896 96.0776C168.77 96.8646 168.413 97.5965 167.871 98.181C167.329 98.7651 166.625 99.1751 165.849 99.3588C165.074 99.5443 164.261 99.4951 163.513 99.2176C162.766 98.94 162.118 98.4465 161.651 97.7998C161.301 97.3171 161.063 96.7628 160.953 96.1768C160.844 95.5908 160.866 94.9878 161.017 94.4113C161.169 93.8348 161.447 93.2992 161.831 92.8431C162.215 92.387 162.695 92.0219 163.238 91.774C163.962 91.4377 164.77 91.3253 165.558 91.4513C166.346 91.5773 167.079 91.936 167.662 92.4812C168.05 92.8428 168.362 93.2768 168.581 93.7589Z" stroke="#292B59" stroke-width="1.15376" stroke-linecap="round" stroke-linejoin="round"/>
<path d="M65.5631 83.1862C66.9605 82.5498 68.5532 82.4932 69.9923 83.0287C71.4313 83.5643 72.5995 84.6484 73.2408 86.0435L76.6653 93.5468C77.3017 94.9442 77.3583 96.5369 76.8227 97.9759C76.2872 99.415 75.2031 100.583 73.808 101.225L63.0766 106.132C61.6792 106.769 60.0864 106.826 58.6472 106.29C57.2081 105.754 56.0399 104.67 55.3988 103.275L51.9549 95.7716C51.3182 94.3742 51.2614 92.7814 51.797 91.3422C52.3326 89.9031 53.4169 88.7349 54.8122 88.0938L65.5631 83.1862Z" stroke="#292B59" stroke-width="1.15376" stroke-linecap="round" stroke-linejoin="round"/>
<path d="M171.897 78.0544C172.378 77.8298 172.751 77.4242 172.935 76.9258C173.119 76.4275 173.099 75.8767 172.878 75.3934L171.679 72.7323C171.455 72.2499 171.05 71.8757 170.551 71.6918C170.052 71.5078 169.501 71.529 169.018 71.7508L148.732 81.0208C148.25 81.2454 147.877 81.651 147.693 82.1493C147.51 82.6477 147.53 83.1985 147.75 83.6818L148.95 86.3428C149.174 86.8246 149.58 87.1982 150.078 87.3821C150.577 87.566 151.128 87.5452 151.611 87.3244L171.897 78.0544Z" stroke="#292B59" stroke-width="1.15376" stroke-linecap="round" stroke-linejoin="round"/>
<path d="M212.772 56.461C213.032 57.0527 213.476 57.5452 214.037 57.8655C214.599 58.1859 215.248 58.3172 215.89 58.24C216.532 58.1629 217.132 57.8814 217.601 57.4371C218.071 56.9929 218.385 56.4094 218.498 55.7728C218.61 55.1362 218.515 54.4803 218.227 53.902C217.938 53.3236 217.471 52.8534 216.894 52.5609C216.318 52.2683 215.663 52.1689 215.025 52.2773C214.388 52.3857 213.802 52.6961 213.355 53.1628C212.941 53.5923 212.664 54.1355 212.56 54.7229C212.457 55.3104 212.53 55.9155 212.772 56.461Z" stroke="#292B59" stroke-width="1.15376" stroke-linecap="round" stroke-linejoin="round"/>
<path d="M195.999 63.8553C196.237 64.4017 196.633 64.8648 197.135 65.1858C197.638 65.5067 198.224 65.6709 198.82 65.6576C199.266 65.6488 199.704 65.5411 200.103 65.3424C200.502 65.1437 200.852 64.8589 201.128 64.5086C201.403 64.1582 201.598 63.751 201.697 63.3164C201.796 62.8819 201.797 62.4307 201.701 61.9955C201.605 61.5603 201.414 61.1518 201.141 60.7995C200.868 60.4471 200.52 60.1596 200.123 59.9578C199.726 59.756 199.289 59.6448 198.843 59.6323C198.398 59.6198 197.955 59.7063 197.547 59.8855C197.184 60.0438 196.856 60.2722 196.582 60.5576C196.307 60.843 196.092 61.1798 195.948 61.5487C195.804 61.9175 195.735 62.3112 195.743 62.707C195.752 63.1028 195.839 63.493 195.999 63.8553Z" stroke="#292B59" stroke-width="1.15376" stroke-linecap="round" stroke-linejoin="round"/>
<path d="M212.772 56.4612L201.517 61.4125" stroke="#292B59" stroke-width="1.15376" stroke-linecap="round" stroke-linejoin="round"/>
<path d="M217.352 20.8643L211.245 23.5471L215.128 52.2514" stroke="#292B59" stroke-width="1.15376" stroke-linecap="round" stroke-linejoin="round"/>
<path d="M214.473 47.4311L192.094 54.6508L183.151 45.8825L212.51 32.9263" stroke="#292B59" stroke-width="1.15376" stroke-linecap="round" stroke-linejoin="round"/>
<path d="M110.051 100.606C111.314 97.8139 112.462 94.8934 113.592 91.8811C113.614 91.9029 111.756 100.737 112.567 107.564" stroke="#292B59" stroke-width="1.15376" stroke-linecap="round" stroke-linejoin="round"/>
<path d="M92.2822 55.1523C97.8442 64.1606 100.702 75.1755 101.661 76.9205C107.201 80.0395 117.606 77.4221 120.987 73.7359C122.508 61.7016 121.101 57.3851 117.169 46.9729" stroke="#292B59" stroke-width="1.15376" stroke-linecap="round" stroke-linejoin="round"/>
<path d="M101.662 76.9205C97.0593 81.6754 91.9118 76.5278 85.3464 111.36C70.449 111.273 65.0397 112.516 51.0801 114.152C48.6154 122.073 49.3134 130.576 52.2362 139.455L89.7524 127.13C92.3873 126.261 94.7235 124.666 96.4922 122.529C101.99 115.872 106.552 108.495 110.051 100.602C114.746 115.473 127.418 138.007 135.666 151.035C148.294 151.035 158.788 148.875 167.121 144.491C144.85 127.261 125.334 85.0976 120.988 73.7336" stroke="#292B59" stroke-width="1.15376" stroke-linecap="round" stroke-linejoin="round"/>
<path d="M98.7168 52.2073C100.28 54.6796 101.707 57.2354 102.992 59.8632C108.03 59.5579 111.847 58.6418 114.487 56.2861C113.795 53.55 112.815 50.8948 111.564 48.365" stroke="#292B59" stroke-width="1.15376" stroke-linecap="round" stroke-linejoin="round"/>
<path d="M116.148 67.5415L113.073 72.0129L108.009 69.7881C107.682 67.7447 107.171 65.7357 106.482 63.7853C109.428 63.6065 112.287 62.7159 114.814 61.1897C115.425 63.2676 115.871 65.3925 116.148 67.5415Z" stroke="#292B59" stroke-width="1.15376" stroke-linecap="round" stroke-linejoin="round"/>
<path d="M157.59 148.312C164.593 156.033 175.843 159.785 181.606 166.939C173.863 166.786 157.919 164.103 150.698 161.137C149.127 158.171 149.934 156.775 145.485 150.558C149.577 150.158 153.627 149.406 157.59 148.312Z" stroke="#292B59" stroke-width="1.15376" stroke-linecap="round" stroke-linejoin="round"/>
<path d="M50.4479 116.618C45.6058 116.793 40.7599 116.405 36.0073 115.462C31.4716 125.277 28.2435 137.514 26.6064 145.433C37.9061 140.127 38.1896 128.532 49.7063 127.371C49.3971 123.77 49.6472 120.143 50.4479 116.618Z" stroke="#292B59" stroke-width="1.15376" stroke-linecap="round" stroke-linejoin="round"/>
<path d="M100.549 50.5719C103.756 50.4629 106.482 49.8303 108.074 47.9763" stroke="#292B59" stroke-width="1.15376" stroke-linecap="round" stroke-linejoin="round"/>
<path d="M107.331 39.3822C109.161 39.0321 110.895 38.2967 112.419 37.2249C113.942 36.153 115.22 34.7693 116.168 33.1655C117.115 31.5618 117.711 29.7748 117.915 27.9232C118.119 26.0716 117.926 24.1979 117.35 22.4264C116.382 19.4555 114.385 16.9273 111.72 15.2962C109.055 13.6651 105.895 13.0381 102.809 13.5277C99.7231 14.0174 96.9128 15.5917 94.8833 17.9676C92.8539 20.3436 91.7383 23.3655 91.7372 26.4903C91.7077 28.4614 92.0544 30.42 92.7589 32.2612C91.0442 29.2334 88.331 26.8953 85.0832 25.6465C81.8354 24.3977 78.2547 24.3158 74.9531 25.4148C71.6516 26.5138 68.8344 28.7255 66.9831 31.6717C65.1317 34.618 64.3612 38.1158 64.8033 41.5672C65.2455 45.0186 66.8727 48.2093 69.4069 50.5938C71.9411 52.9782 75.2248 54.4084 78.6967 54.6398C82.1686 54.8712 85.6131 53.8894 88.4413 51.8623C91.2695 49.8352 93.3057 46.8886 94.2019 43.5264C96.0996 44.5734 98.6515 44.7042 100.286 45.8603" stroke="#292B59" stroke-width="1.15376" stroke-linecap="round" stroke-linejoin="round"/>
<path d="M36.0521 20.3408C36.3067 20.9017 36.3892 21.5255 36.2893 22.1333C36.1894 22.7411 35.9114 23.3057 35.4907 23.7555C35.0699 24.2054 34.5252 24.5204 33.9254 24.6607C33.3256 24.801 32.6977 24.7603 32.1211 24.5437C31.5444 24.3271 31.0449 23.9444 30.6858 23.444C30.3266 22.9436 30.1239 22.3479 30.1033 21.7323C30.0827 21.1166 30.2451 20.5087 30.57 19.9854C30.8949 19.4621 31.3676 19.0468 31.9285 18.7922C32.3006 18.6209 32.703 18.5251 33.1123 18.5103C33.5217 18.4955 33.9299 18.5621 34.3134 18.7061C34.6969 18.8501 35.048 19.0688 35.3464 19.3493C35.6449 19.6299 35.8847 19.9669 36.0521 20.3408Z" stroke="#292B59" stroke-width="1.15376" stroke-linecap="round" stroke-linejoin="round"/>
<path d="M46.6305 24.245C46.8852 24.8059 46.9678 25.4298 46.8679 26.0377C46.7681 26.6456 46.4901 27.2102 46.0694 27.6601C45.6486 28.11 45.1038 28.4251 44.5039 28.5654C43.9041 28.7056 43.2761 28.6649 42.6994 28.4483C42.1227 28.2316 41.6232 27.8488 41.2641 27.3483C40.905 26.8477 40.7024 26.2519 40.6819 25.6362C40.6614 25.0205 40.824 24.4126 41.149 23.8893C41.4741 23.366 41.9471 22.9509 42.5081 22.6964C42.8801 22.5254 43.2824 22.4299 43.6916 22.4153C44.1008 22.4007 44.5088 22.4673 44.8921 22.6113C45.2754 22.7553 45.6264 22.9738 45.9248 23.2542C46.2231 23.5346 46.463 23.8714 46.6305 24.245Z" stroke="#292B59" stroke-width="1.15376" stroke-linecap="round" stroke-linejoin="round"/>
<path d="M34.9175 32.948L42.0499 14.0808" stroke="#292B59" stroke-width="1.15376" stroke-linecap="round" stroke-linejoin="round"/>
<path d="M108.837 147.417L113.745 158.083" stroke="#292B59" stroke-width="1.15376" stroke-linecap="round" stroke-linejoin="round"/>
<path d="M116.624 150.297L105.958 155.226" stroke="#292B59" stroke-width="1.15376" stroke-linecap="round" stroke-linejoin="round"/>
<path d="M153.181 52.6003C153.845 53.0554 154.375 53.6796 154.716 54.4082C155.057 55.1368 155.198 55.9435 155.122 56.7446" stroke="#292B59" stroke-width="1.15376" stroke-linecap="round" stroke-linejoin="round"/>
<path d="M155.515 49.0911C156.717 50.0769 157.684 51.3191 158.345 52.7268C159.005 54.1344 159.343 55.6719 159.333 57.2269" stroke="#292B59" stroke-width="1.15376" stroke-linecap="round" stroke-linejoin="round"/>
<path d="M158.05 45.1624C161.494 48.5283 163.595 53.033 163.961 57.835" stroke="#292B59" stroke-width="1.15376" stroke-linecap="round" stroke-linejoin="round"/>
<path d="M133.201 0.708984L129.465 2.40341C129.113 2.53898 128.812 2.77955 128.602 3.09238C128.392 3.40522 128.284 3.77514 128.291 4.1518C128.297 4.40159 128.354 4.64761 128.457 4.87508C128.56 5.10255 128.709 5.30676 128.893 5.47543C129.171 5.72913 129.521 5.89092 129.895 5.93878C130.268 5.98664 130.648 5.91825 130.981 5.74291L133.075 4.79123C133.513 4.60467 134.006 4.59655 134.449 4.76858C134.893 4.94061 135.251 5.27918 135.449 5.71201C135.646 6.14484 135.666 6.63766 135.505 7.08526C135.344 7.53287 135.015 7.89981 134.587 8.10776L130.825 9.82975" stroke="#292B59" stroke-width="1.15376" stroke-linecap="round" stroke-linejoin="round"/>
<path d="M129.93 0.708984L134.096 9.82745" stroke="#292B59" stroke-width="1.15376" stroke-linecap="round" stroke-linejoin="round"/>
<path d="M12.952 85.7119C12.6978 85.2266 12.2677 84.8568 11.7499 84.678C11.232 84.4992 10.6654 84.5249 10.1659 84.7499C9.66644 84.9761 9.27249 85.3848 9.06479 85.8922C8.85709 86.3996 8.8514 86.9672 9.04888 87.4787L10.0086 89.6162" stroke="#292B59" stroke-width="1.15376" stroke-linecap="round" stroke-linejoin="round"/>
<path d="M25.0359 94.9807C25.6319 94.756 26.1266 94.3233 26.4285 93.7624C26.7304 93.2016 26.8191 92.5504 26.6784 91.9292C26.5376 91.308 26.1768 90.7586 25.6627 90.3827C25.1485 90.0067 24.5157 89.8294 23.881 89.8836C23.5221 89.9115 23.1727 90.0131 22.8547 90.1821C14.0864 92.276 11.0764 91.9707 10.0076 89.615C11.0764 91.9707 9.30963 94.4365 1.98088 99.6702C1.38656 99.9851 0.934802 100.515 0.717826 101.152C0.500849 101.788 0.535007 102.484 0.813327 103.096C1.09165 103.708 1.59315 104.191 2.21547 104.446C2.83779 104.702 3.53402 104.71 4.16206 104.469L25.0359 94.9807Z" stroke="#292B59" stroke-width="1.15376" stroke-linecap="round" stroke-linejoin="round"/>
</svg>
