<svg width="32" height="32" viewBox="0 0 32 32" fill="none" xmlns="http://www.w3.org/2000/svg">
<g clip-path="url(#clip0_1_18297)">
<path d="M31.2985 14.4745C31.08 14.185 30.854 13.8855 30.818 13.653C30.779 13.4055 30.904 13.042 31.025 12.691C31.201 12.182 31.3995 11.605 31.221 11.055C31.0395 10.4945 30.5335 10.141 30.087 9.829C29.787 9.6195 29.4775 9.403 29.368 9.189C29.256 8.97 29.2625 8.588 29.2685 8.219C29.2775 7.678 29.2875 7.0655 28.945 6.5945C28.601 6.1215 28.013 5.942 27.4945 5.784C27.143 5.677 26.779 5.5655 26.6075 5.394C26.4355 5.222 26.3245 4.858 26.2175 4.5065C26.0595 3.988 25.88 3.4 25.4065 3.056C24.936 2.7135 24.323 2.723 23.7825 2.7325C23.4135 2.7395 23.031 2.745 22.8125 2.633C22.5985 2.524 22.382 2.214 22.1725 1.914C21.861 1.4675 21.5075 0.962 20.947 0.78C20.3965 0.6015 19.8185 0.8 19.309 0.975C18.958 1.096 18.5935 1.2205 18.347 1.1825C18.1145 1.146 17.815 0.92 17.525 0.702C17.089 0.373 16.594 0 16 0C15.406 0 14.911 0.373 14.4745 0.702C14.185 0.9205 13.8855 1.146 13.653 1.1825C13.4065 1.222 13.0425 1.096 12.691 0.975C12.1815 0.7995 11.6045 0.601 11.055 0.779C10.4945 0.961 10.141 1.4665 9.829 1.913C9.6195 2.2125 9.403 2.5225 9.189 2.6315C8.97 2.7435 8.5875 2.7365 8.219 2.731C7.678 2.7205 7.0655 2.7115 6.5945 3.0545C6.1215 3.3985 5.942 3.9865 5.784 4.505C5.677 4.857 5.5655 5.2205 5.394 5.3925C5.222 5.5645 4.858 5.6755 4.506 5.783C3.9875 5.941 3.4 6.1205 3.0555 6.5935C2.713 7.064 2.723 7.677 2.732 8.218C2.738 8.5875 2.744 8.969 2.6325 9.1885C2.5235 9.402 2.2135 9.6185 1.914 9.828C1.4675 10.14 0.962 10.4935 0.7795 11.054C0.601 11.6045 0.8 12.1815 0.9755 12.691C1.0965 13.0425 1.222 13.4055 1.183 13.653C1.1465 13.8855 0.921 14.185 0.7025 14.4745C0.373 14.911 0 15.406 0 16C0 16.594 0.373 17.089 0.702 17.5255C0.9205 17.815 1.146 18.115 1.1825 18.3475L2.1705 18.192C2.0955 17.7125 1.793 17.3115 1.5005 16.9235C1.2545 16.597 1 16.2595 1 16C1 15.7405 1.2545 15.403 1.5005 15.0765C1.793 14.6885 2.095 14.2875 2.1705 13.808C2.248 13.315 2.0815 12.832 1.9205 12.365C1.79 11.9865 1.655 11.5945 1.7305 11.363C1.809 11.1215 2.1535 10.881 2.4865 10.648C2.8865 10.3685 3.3005 10.0795 3.523 9.6435C3.748 9.2025 3.74 8.694 3.7315 8.202C3.725 7.799 3.7185 7.383 3.864 7.1825C4.0115 6.98 4.411 6.858 4.798 6.74C5.267 6.5965 5.7525 6.4485 6.101 6.1C6.4495 5.7515 6.5975 5.2665 6.7405 4.7975C6.8585 4.411 6.98 4.011 7.183 3.8635C7.3835 3.7175 7.8 3.724 8.2025 3.731C8.6945 3.739 9.2025 3.7475 9.644 3.5225C10.08 3.3 10.369 2.8865 10.649 2.486C10.8815 2.153 11.1225 1.809 11.364 1.7305C11.595 1.6545 11.987 1.7905 12.3655 1.9205C12.833 2.0815 13.3155 2.2475 13.8085 2.1705C14.2875 2.0955 14.689 1.793 15.077 1.5005C15.403 1.2545 15.7405 1 16 1C16.2595 1 16.597 1.2545 16.9235 1.5005C17.3115 1.793 17.7125 2.095 18.192 2.1705C18.684 2.2465 19.168 2.0815 19.635 1.9205C20.014 1.79 20.405 1.6545 20.6375 1.7305C20.8785 1.809 21.1195 2.153 21.3525 2.486C21.632 2.886 21.9215 3.3 22.357 3.5225C22.798 3.7475 23.3085 3.7405 23.7985 3.731C24.2015 3.725 24.618 3.7175 24.8185 3.8635C25.021 4.011 25.1425 4.4105 25.261 4.7975C25.404 5.2665 25.552 5.752 25.9005 6.1005C26.2485 6.449 26.734 6.597 27.203 6.74C27.589 6.858 27.989 6.98 28.1365 7.1825C28.2825 7.383 28.2755 7.799 28.269 8.202C28.261 8.694 28.253 9.2025 28.478 9.6435C28.7005 10.0795 29.114 10.3685 29.514 10.648C29.847 10.881 30.191 11.1215 30.27 11.3635C30.345 11.595 30.2105 11.9865 30.08 12.365C29.919 12.832 29.753 13.315 29.83 13.808C29.9055 14.287 30.208 14.6885 30.5 15.076C30.7455 15.403 31 15.7405 31 16C31 16.2595 30.7455 16.597 30.4995 16.924C30.2075 17.3115 29.9055 17.7125 29.8295 18.192L30.818 18.3475C30.854 18.115 31.08 17.8155 31.2985 17.5255C31.627 17.089 32 16.594 32 16C32 15.406 31.627 14.911 31.2985 14.4745ZM27.202 25.2605C26.733 25.4035 26.2475 25.5515 25.8995 25.9C25.551 26.248 25.403 26.7335 25.2595 27.2025C25.142 27.589 25.02 27.9885 24.817 28.136C24.617 28.2815 24.198 28.2745 23.798 28.2685C23.306 28.2605 22.798 28.2525 22.356 28.4775C21.9205 28.7 21.6315 29.1135 21.352 29.5135C21.119 29.8465 20.8785 30.1905 20.6365 30.2695C20.4045 30.3455 20.0135 30.2105 19.6345 30.0795C19.1675 29.919 18.684 29.7555 18.1915 29.8295C17.712 29.905 17.311 30.2075 16.9235 30.4995C16.597 30.7455 16.2595 31 16 31C15.7405 31 15.403 30.7455 15.076 30.4995C14.6885 30.2075 14.287 29.9055 13.808 29.8295C13.3165 29.7555 12.832 29.919 12.365 30.0795C11.9865 30.21 11.5955 30.3455 11.363 30.2695C11.1215 30.191 10.8805 29.8465 10.648 29.5135C10.368 29.113 10.079 28.6995 9.6435 28.477C9.2025 28.252 8.6935 28.26 8.2025 28.2685C7.7995 28.2735 7.383 28.282 7.1825 28.1355C6.98 27.988 6.858 27.5885 6.74 27.202C6.5965 26.733 6.4485 26.2475 6.1 25.8995C5.7515 25.551 5.2665 25.403 4.797 25.2595C4.4105 25.142 4.0105 25.02 3.8635 24.817L3.055 25.406C3.399 25.8785 3.987 26.058 4.505 26.216C4.857 26.3235 5.221 26.4345 5.393 26.6065C5.565 26.7785 5.676 27.142 5.7835 27.494C5.9415 28.0125 6.121 28.6 6.594 28.944C7.0645 29.2875 7.6775 29.276 8.219 29.2675C8.5875 29.2635 8.97 29.2555 9.189 29.367C9.4025 29.476 9.619 29.786 9.8285 30.086C10.1405 30.5325 10.494 31.038 11.0545 31.2205C11.604 31.3975 12.1815 31.2005 12.691 31.0245C13.0425 30.904 13.4065 30.775 13.653 30.8175C13.8855 30.8535 14.185 31.0795 14.4745 31.298C14.911 31.627 15.406 32 16 32C16.594 32 17.089 31.627 17.5255 31.2985C17.815 31.08 18.115 30.854 18.3475 30.818C18.5915 30.775 18.958 30.904 19.3095 31.025C19.8195 31.201 20.397 31.4 20.9455 31.221C21.506 31.0395 21.8595 30.533 22.1715 30.0865C22.381 29.787 22.598 29.477 22.811 29.368C23.03 29.2555 23.411 29.2615 23.781 29.2685C24.3185 29.277 24.934 29.2875 25.4055 28.945C25.878 28.601 26.0575 28.0135 26.2155 27.495C26.323 27.1435 26.434 26.779 26.606 26.6075C26.778 26.4355 27.1415 26.3245 27.493 26.2175C28.0115 26.0595 28.5995 25.8795 28.9435 25.4065L28.135 24.8185C27.9885 25.0205 27.5885 25.142 27.202 25.2605Z" fill="#333343" stroke="#333343" stroke-width="0.00075"/>
<path d="M4 23V22C4 21.7235 3.776 21.5 3.5 21.5H2.5V22.5H3V23C3 23.276 2.7755 23.5 2.5 23.5C2.2245 23.5 2 23.276 2 23V20C2 19.724 2.2245 19.5 2.5 19.5C2.7755 19.5 3 19.724 3 20V20.5H4V20C4 19.173 3.327 18.5 2.5 18.5C1.673 18.5 1 19.173 1 20V23C1 23.827 1.673 24.5 2.5 24.5C3.327 24.5 4 23.827 4 23ZM4.5 18.5V23C4.5 23.827 5.173 24.5 6 24.5C6.827 24.5 7.5 23.827 7.5 23V18.5H6.5V23C6.5 23.276 6.2755 23.5 6 23.5C5.7245 23.5 5.5 23.276 5.5 23V18.5H4.5ZM8 20V24.5H9V23.5H10V24.5H11V20C11 19.173 10.327 18.5 9.5 18.5C8.673 18.5 8 19.173 8 20ZM10 20V22.5H9V20C9 19.724 9.2245 19.5 9.5 19.5C9.7755 19.5 10 19.724 10 20ZM15 20V24.5H16V23.5H17V24.5H18V20C18 19.173 17.327 18.5 16.5 18.5C15.673 18.5 15 19.173 15 20ZM16.5 19.5C16.776 19.5 17 19.724 17 20V22.5H16V20C16 19.724 16.2245 19.5 16.5 19.5ZM11.5 19V21.498C11.5 21.4995 11.5 21.5005 11.5 21.5015V24.5H12.5V22.9255L13.6095 24.3125C13.7045 24.431 13.848 24.5 14 24.5H14.5V23.5H14.24L13.023 21.9785C13.859 21.847 14.5 21.122 14.5 20.25C14.5 19.285 13.715 18.5 12.75 18.5H12C11.724 18.5 11.5 18.7235 11.5 19ZM12.5 19.5H12.75C13.1635 19.5 13.5 19.8365 13.5 20.25C13.5 20.6635 13.1635 21 12.75 21H12.5V19.5ZM20.5 21.404L19.4645 18.8145C19.375 18.591 19.137 18.4665 18.9055 18.509C18.67 18.554 18.5 18.7605 18.5 19V24.5H19.5V21.596L20.5355 24.1855C20.613 24.3785 20.799 24.5 20.9995 24.5C21.031 24.5 21.063 24.497 21.0945 24.491C21.33 24.446 21.5 24.2395 21.5 24V18.5H20.5V21.404ZM24 19.5H25V18.5H22V19.5H23V24.5H24V19.5ZM28 19.5V18.5H26C25.7235 18.5 25.5 18.7235 25.5 19V24C25.5 24.2765 25.7235 24.5 26 24.5H28V23.5H26.5V22H28V21H26.5V19.5H28ZM28.5 19V24C28.5 24.2765 28.7235 24.5 29 24.5H31V23.5H29.5V22H31V21H29.5V19.5H31V18.5H29C28.7235 18.5 28.5 18.7235 28.5 19Z" fill="#333343" stroke="#333343" stroke-width="0.00075"/>
<path d="M28.5 16C28.5 9.1075 22.8925 3.5 16 3.5C9.1075 3.5 3.5 9.1075 3.5 16C3.5 16.5035 3.534 17.029 3.6005 17.562L4.5925 17.438C4.531 16.946 4.5 16.462 4.5 16C4.5 9.659 9.659 4.5 16 4.5C22.3415 4.5 27.5 9.659 27.5 16C27.5 16.462 27.469 16.946 27.407 17.438L28.399 17.562C28.4665 17.029 28.5 16.5035 28.5 16ZM23.6335 25.8955L23.022 25.1045C20.9925 26.6715 18.565 27.5 16 27.5C13.4355 27.5 11.0075 26.6715 8.9785 25.1045L8.367 25.8955C10.573 27.5995 13.212 28.5 16 28.5C18.788 28.5 21.4275 27.5995 23.6335 25.8955Z" fill="#333343" stroke="#333343" stroke-width="0.00075"/>
<path d="M11 10.5H10V11.5H10.5V16.5H11.5V11C11.5 10.724 11.276 10.5 11 10.5ZM13.75 10.5C12.785 10.5 12 11.285 12 12.25V14.75C12 15.715 12.785 16.5 13.75 16.5C14.715 16.5 15.5 15.715 15.5 14.75V12.25C15.5 11.285 14.715 10.5 13.75 10.5ZM14.5 14.75C14.5 15.1635 14.1635 15.5 13.75 15.5C13.3365 15.5 13 15.1635 13 14.75V12.25C13 11.8365 13.3365 11.5 13.75 11.5C14.1635 11.5 14.5 11.8365 14.5 12.25V14.75ZM17.75 10.5C16.785 10.5 16 11.285 16 12.25V14.75C16 15.715 16.785 16.5 17.75 16.5C18.715 16.5 19.5 15.715 19.5 14.75V12.25C19.5 11.285 18.715 10.5 17.75 10.5ZM18.5 14.75C18.5 15.1635 18.1635 15.5 17.75 15.5C17.3365 15.5 17 15.1635 17 14.75V12.25C17 11.8365 17.3365 11.5 17.75 11.5C18.1635 11.5 18.5 11.8365 18.5 12.25V14.75Z" fill="#333343" stroke="#333343" stroke-width="0.00075"/>
<path d="M21.0518 15.7764L23.0518 11.7764L23.9463 12.2234L21.9463 16.2234L21.0518 15.7764Z" fill="#333343" stroke="#333343" stroke-width="0.00075"/>
<path d="M21.5 12.5H20.5V13.5H21.5V12.5Z" fill="#333343" stroke="#333343" stroke-width="0.00075"/>
<path d="M24.5 14.5H23.5V15.5H24.5V14.5Z" fill="#333343" stroke="#333343" stroke-width="0.00075"/>
</g>
<defs>
<clipPath id="clip0_1_18297">
<rect width="32" height="32" fill="white"/>
</clipPath>
</defs>
</svg>
