<svg width="28" height="28" viewBox="0 0 28 28" fill="none" xmlns="http://www.w3.org/2000/svg">
<path fill-rule="evenodd" clip-rule="evenodd" d="M4.66667 0C2.08934 0 0 2.08934 0 4.66667V23.3333C0 25.9107 2.08934 28 4.66667 28H23.3333C25.9107 28 28 25.9107 28 23.3333V4.66667C28 2.08934 25.9107 0 23.3333 0H4.66667ZM12.4399 14.25L7.03415 7H11.2021L14.7448 11.752L19.1305 7H20.3534L15.2912 12.4862L21 20.1429H16.8341L12.9863 14.982L8.225 20.1429H7L12.4399 14.25ZM10.7497 7.9033H8.83537L17.2866 19.2374H19.2009L10.7497 7.9033Z" fill="#A8A8BE"/>
</svg>
