<svg width="40" height="40" viewBox="0 0 40 40" fill="none" xmlns="http://www.w3.org/2000/svg">
<path d="M31.6667 15V25M8.33333 11.6667V28.3333M28.3333 11.1905L11.6667 8.80952M28.3333 28.8095L11.6667 31.1905M7.66667 11.6667H9C9.93342 11.6667 10.4001 11.6667 10.7567 11.485C11.0703 11.3252 11.3252 11.0703 11.485 10.7567C11.6667 10.4001 11.6667 9.93342 11.6667 9V7.66667C11.6667 6.73325 11.6667 6.26654 11.485 5.91002C11.3252 5.59641 11.0703 5.34144 10.7567 5.18166C10.4001 5 9.93342 5 9 5H7.66667C6.73325 5 6.26654 5 5.91002 5.18166C5.59641 5.34144 5.34144 5.59641 5.18166 5.91002C5 6.26654 5 6.73325 5 7.66667V9C5 9.93342 5 10.4001 5.18166 10.7567C5.34144 11.0703 5.59641 11.3252 5.91002 11.485C6.26654 11.6667 6.73325 11.6667 7.66667 11.6667ZM7.66667 35H9C9.93342 35 10.4001 35 10.7567 34.8183C11.0703 34.6586 11.3252 34.4036 11.485 34.09C11.6667 33.7335 11.6667 33.2668 11.6667 32.3333V31C11.6667 30.0666 11.6667 29.5999 11.485 29.2433C11.3252 28.9297 11.0703 28.6748 10.7567 28.515C10.4001 28.3333 9.93342 28.3333 9 28.3333H7.66667C6.73325 28.3333 6.26654 28.3333 5.91002 28.515C5.59641 28.6748 5.34144 28.9297 5.18166 29.2433C5 29.5999 5 30.0666 5 31V32.3333C5 33.2668 5 33.7335 5.18166 34.09C5.34144 34.4036 5.59641 34.6586 5.91002 34.8183C6.26654 35 6.73325 35 7.66667 35ZM31 15H32.3333C33.2668 15 33.7335 15 34.09 14.8183C34.4036 14.6586 34.6586 14.4036 34.8183 14.09C35 13.7335 35 13.2668 35 12.3333V11C35 10.0666 35 9.59987 34.8183 9.24335C34.6586 8.92975 34.4036 8.67478 34.09 8.51499C33.7335 8.33333 33.2668 8.33333 32.3333 8.33333H31C30.0666 8.33333 29.5999 8.33333 29.2433 8.51499C28.9297 8.67478 28.6748 8.92975 28.515 9.24335C28.3333 9.59987 28.3333 10.0666 28.3333 11V12.3333C28.3333 13.2668 28.3333 13.7335 28.515 14.09C28.6748 14.4036 28.9297 14.6586 29.2433 14.8183C29.5999 15 30.0666 15 31 15ZM31 31.6667H32.3333C33.2668 31.6667 33.7335 31.6667 34.09 31.485C34.4036 31.3252 34.6586 31.0703 34.8183 30.7567C35 30.4001 35 29.9334 35 29V27.6667C35 26.7332 35 26.2665 34.8183 25.91C34.6586 25.5964 34.4036 25.3414 34.09 25.1817C33.7335 25 33.2668 25 32.3333 25H31C30.0666 25 29.5999 25 29.2433 25.1817C28.9297 25.3414 28.6748 25.5964 28.515 25.91C28.3333 26.2665 28.3333 26.7332 28.3333 27.6667V29C28.3333 29.9334 28.3333 30.4001 28.515 30.7567C28.6748 31.0703 28.9297 31.3252 29.2433 31.485C29.5999 31.6667 30.0666 31.6667 31 31.6667Z" stroke="#6064BF" stroke-width="3" stroke-linecap="round" stroke-linejoin="round"/>
</svg>
