<svg width="37" height="37" viewBox="0 0 37 37" fill="none" xmlns="http://www.w3.org/2000/svg">
<g clip-path="url(#clip0_1_18392)">
<path d="M26.1238 32.27V29.1967C26.1238 27.5665 25.4762 26.003 24.3235 24.8503C23.1707 23.6976 21.6073 23.05 19.9771 23.05H7.68378C6.05358 23.05 4.49015 23.6976 3.33743 24.8503C2.1847 26.003 1.53711 27.5665 1.53711 29.1967V32.27M35.3438 32.27V29.1967C35.3428 27.8347 34.8895 26.5117 34.0551 25.4354C33.2207 24.359 32.0524 23.5902 30.7338 23.2498M24.5871 4.80975C25.9093 5.14828 27.0812 5.91723 27.918 6.99537C28.7549 8.07351 29.2092 9.39951 29.2092 10.7643C29.2092 12.1292 28.7549 13.4552 27.918 14.5333C27.0812 15.6114 25.9093 16.3804 24.5871 16.7189M19.9771 10.7567C19.9771 14.1514 17.2252 16.9033 13.8304 16.9033C10.4357 16.9033 7.68378 14.1514 7.68378 10.7567C7.68378 7.36194 10.4357 4.60999 13.8304 4.60999C17.2252 4.60999 19.9771 7.36194 19.9771 10.7567Z" stroke="#6064BF" stroke-width="3" stroke-linecap="round" stroke-linejoin="round"/>
</g>
<defs>
<clipPath id="clip0_1_18392">
<rect width="36.88" height="36.88" fill="white"/>
</clipPath>
</defs>
</svg>
